<?xml version="1.0" encoding="UTF-8"?>
<svg width="179px" height="56px" viewBox="0 0 179 56" version="1.1" xmlns="http://www.w3.org/2000/svg" xmlns:xlink="http://www.w3.org/1999/xlink">
    <!-- Generator: Sketch 52.4 (67378) - http://www.bohemiancoding.com/sketch -->
    <title>logo/ouvidoria </title>
    <desc>Created with Sketch.</desc>
    <defs>
        <polygon id="path-1" points="0 0.134545455 49.6624846 0.134545455 49.6624846 55.2724654 0 55.2724654"></polygon>
        <polygon id="path-3" points="0 55.8656 178.613111 55.8656 178.613111 0.727418182 0 0.727418182"></polygon>
    </defs>
    <g id="Symbols" stroke="none" stroke-width="1" fill="none" fill-rule="evenodd">
        <g id="rodapé/desktop" transform="translate(-165.000000, -110.000000)">
            <g id="logo/ouvidoria-negativa" transform="translate(165.000000, 110.000000)">
                <g id="logo/ouvidoria-">
                    <g id="Group-3" transform="translate(0.000000, 0.592873)">
                        <mask id="mask-2" fill="white">
                            <use xlink:href="#path-1"></use>
                        </mask>
                        <g id="Clip-2"></g>
                        <path d="M2.98401593,13.6451636 C-2.98240695,25.4502545 0.531770787,36.4262545 8.79831624,44.1411636 L10.1286574,43.2357091 C11.4253561,42.3535273 12.5684695,41.5091636 13.5792069,40.7069818 C12.7505777,40.1586182 11.963636,39.5462545 11.2264266,38.8728 C9.54137651,37.3353455 8.09694341,35.4618909 6.9984429,33.2888 C4.57691481,28.4960727 4.3355665,23.1898909 5.90213647,18.4866182 C7.46870644,13.7789818 10.8534337,9.65825455 15.6760118,7.24734545 L16.2479342,6.96225455 L16.2735318,6.96225455 C20.9308229,4.82407273 26.0240037,4.66334545 30.5606206,6.15716364 C35.2947044,7.71570909 39.4385818,11.0793455 41.862304,15.8757091 L42.1497279,16.4444364 L42.1497279,16.4633455 C43.8867044,20.1389818 44.4520445,23.7288 44.0812458,27.1004364 C43.6629087,30.9120727 42.0685471,34.3993455 39.6323918,37.3928 C37.2759546,40.2909818 34.1018586,42.7397091 30.4377524,44.5702545 C25.5712927,47.0015273 19.8220834,48.3317091 13.9756033,48.1578909 C22.1478035,53.4364364 32.9477749,56.1760727 43.720686,55.0044364 C39.6828556,52.2618909 36.5782386,49.7280727 34.1567105,47.4095273 C39.5548678,45.2662545 44.2172784,41.2291636 47.0322774,35.6575273 C53.1457034,23.5622545 48.239019,8.82770909 36.0757953,2.75061818 C23.9118402,-3.32938182 9.0952478,1.54843636 2.98401593,13.6451636" id="Fill-1" fill="#FFFFFF" mask="url(#mask-2)"></path>
                    </g>
                    <path d="M39.524809,17.6322182 C47.7650255,33.9354909 29.6251399,47.9369455 11.6044658,45.9798545 C14.3726578,44.0984 16.5016425,42.3624 18.1603636,40.7725818 C14.4611522,39.3034909 11.2651154,36.5354909 9.33652298,32.7180364 C5.14510725,24.4278545 8.51008784,14.3311273 16.8446496,10.1645818 C25.1814055,5.99876364 35.334856,9.34203636 39.524809,17.6322182" id="Fill-4" fill="#FFFFFF"></path>
                    <path d="M61.9405091,27.216 C61.9405091,26.208 61.7591322,25.4741818 61.3971097,25.016 C61.0343559,24.5578182 60.475598,24.328 59.720836,24.328 C58.9653426,24.328 58.4058533,24.5578182 58.0438308,25.016 C57.6818084,25.4741818 57.5004315,26.208 57.5004315,27.216 L57.5004315,29.2574545 C57.5004315,30.2647273 57.6818084,30.9985455 58.0438308,31.4574545 C58.4058533,31.9163636 58.9653426,32.1447273 59.720836,32.1447273 C60.475598,32.1447273 61.0343559,31.9163636 61.3971097,31.4574545 C61.7591322,30.9985455 61.9405091,30.2647273 61.9405091,29.2574545 L61.9405091,27.216 Z M63.7264866,31.3963636 C63.5092731,31.9963636 63.2072221,32.4850909 62.8225275,32.864 C62.4371015,33.2414545 61.9807338,33.5214545 61.4541557,33.7025455 C60.9261148,33.8843636 60.3483416,33.9745455 59.720836,33.9745455 C59.0911363,33.9745455 58.513363,33.8843636 57.9875162,33.7025455 C57.4594754,33.5214545 57.003839,33.2414545 56.6191444,32.864 C56.2329871,32.4850909 55.9316674,31.9963636 55.7137226,31.3963636 C55.4957777,30.7970909 55.3868053,30.0836364 55.3868053,29.2574545 L55.3868053,27.216 C55.3868053,26.3796364 55.4957777,25.664 55.7137226,25.0690909 C55.9316674,24.4741818 56.2329871,23.9883636 56.6191444,23.6101818 C57.003839,23.2312727 57.4594754,22.952 57.9875162,22.7709091 C58.513363,22.5890909 59.0911363,22.4989091 59.720836,22.4989091 C60.3483416,22.4989091 60.9261148,22.5890909 61.4541557,22.7709091 C61.9807338,22.952 62.4371015,23.2312727 62.8225275,23.6101818 C63.2072221,23.9883636 63.5092731,24.4741818 63.7264866,25.0690909 C63.9444315,25.664 64.0541352,26.3796364 64.0541352,27.216 L64.0541352,29.2574545 C64.0541352,30.0836364 63.9444315,30.7970909 63.7264866,31.3963636 Z" id="Fill-6" fill="#FFFFFF"></path>
                    <path d="M74.0058039,31.7216727 C73.7980981,32.2664 73.5084801,32.7049455 73.1384127,33.0373091 C72.7690766,33.3704 72.3280674,33.6096727 71.8161164,33.7558545 C71.3041655,33.9013091 70.7439448,33.9747636 70.1361859,33.9747636 C69.5276956,33.9747636 68.967475,33.9013091 68.455524,33.7558545 C67.943573,33.6096727 67.5025638,33.3704 67.1332278,33.0373091 C66.7631604,32.7049455 66.4735424,32.2664 66.2658366,31.7216727 C66.0581307,31.1776727 65.9542778,30.5020364 65.9542778,29.6954909 L65.9542778,22.9071273 C65.9542778,22.8264 65.9849949,22.7580364 66.0456977,22.7027636 C66.1064004,22.6467636 66.1773422,22.6191273 66.258523,22.6191273 L67.7636588,22.6191273 C67.8448396,22.6191273 67.9157814,22.6467636 67.9764842,22.7027636 C68.0379183,22.7587636 68.067904,22.8264 68.067904,22.9071273 L68.067904,29.7064 C68.067904,30.1405818 68.098621,30.5173091 68.1593238,30.8351273 C68.2200266,31.1536727 68.3282676,31.4184 68.4862411,31.6300364 C68.6434831,31.8424 68.8563085,31.9987636 69.1247171,32.0998545 C69.3931256,32.2002182 69.7302819,32.2511273 70.1361859,32.2511273 C70.5508662,32.2511273 70.8909479,32.2002182 71.1549683,32.0998545 C71.4182574,31.9987636 71.6281573,31.8424 71.7853994,31.6300364 C71.9426415,31.4184 72.0516139,31.1536727 72.1123166,30.8351273 C72.1730194,30.5173091 72.2037365,30.1405818 72.2037365,29.7064 L72.2037365,22.9071273 C72.2037365,22.8264 72.2337222,22.7587636 72.2951563,22.7027636 C72.355859,22.6467636 72.4268008,22.6191273 72.5079816,22.6191273 L74.0131175,22.6191273 C74.0942983,22.6191273 74.16524,22.6467636 74.2259428,22.7027636 C74.2873769,22.7580364 74.3173626,22.8264 74.3173626,22.9071273 L74.3173626,29.6954909 C74.3173626,30.5020364 74.2127783,31.1776727 74.0058039,31.7216727" id="Fill-8" fill="#FFFFFF"></path>
                    <path d="M84.9911747,22.8765091 C84.9911747,22.8968727 84.9882492,22.9092364 84.9831297,22.9143273 C84.9780102,22.9201455 84.9758161,22.9317818 84.9758161,22.9521455 L82.4818836,32.4328727 C82.3911951,32.7856 82.2595506,33.0626909 82.0869499,33.2641455 C81.9143493,33.4663273 81.730047,33.6190545 81.5325802,33.7252364 C81.334382,33.8314182 81.1317957,33.8990545 80.9233585,33.9288727 C80.7156527,33.9594182 80.530619,33.9746909 80.3689888,33.9746909 C80.2066272,33.9746909 80.0215935,33.9594182 79.8138876,33.9288727 C79.6061818,33.8990545 79.4028641,33.8314182 79.2061287,33.7252364 C79.0079305,33.6190545 78.8228968,33.4663273 78.6502962,33.2641455 C78.478427,33.0626909 78.3467824,32.7856 78.2553626,32.4328727 L75.76143,22.9521455 C75.76143,22.9317818 75.759236,22.9201455 75.7541164,22.9143273 C75.7489969,22.9092364 75.7460715,22.8968727 75.7460715,22.8765091 C75.7460715,22.7965091 75.7716691,22.7332364 75.8228641,22.6874182 C75.8725965,22.6423273 75.9391502,22.6190545 76.0195996,22.6190545 L77.6315138,22.6190545 C77.7024556,22.6190545 77.7631583,22.6452364 77.8143534,22.6954182 C77.8648172,22.7456 77.9006537,22.8059636 77.9211318,22.8765091 L80.1261777,31.9637818 C80.1459244,32.0546909 80.1707906,32.1172364 80.2015077,32.1528727 C80.2322247,32.1885091 80.2870766,32.2052364 80.3689888,32.2052364 C80.4501696,32.2052364 80.5057528,32.1885091 80.5357385,32.1528727 C80.5664556,32.1172364 80.5913218,32.0546909 80.6125312,31.9637818 L82.8168458,22.8765091 C82.8373238,22.8059636 82.8731604,22.7456 82.9236241,22.6954182 C82.9740878,22.6452364 83.0347906,22.6190545 83.1057324,22.6190545 L84.7176466,22.6190545 C84.798096,22.6190545 84.8639183,22.6423273 84.9151134,22.6874182 C84.9655771,22.7332364 84.9911747,22.7965091 84.9911747,22.8765091" id="Fill-10" fill="#FFFFFF"></path>
                    <path d="M88.5186631,33.7629091 C88.4579604,33.8232727 88.3862872,33.8538182 88.3058378,33.8538182 L86.7999706,33.8538182 C86.7187898,33.8538182 86.647848,33.8232727 86.5871453,33.7629091 C86.5264425,33.7025455 86.4957254,33.632 86.4957254,33.5512727 L86.4957254,22.9069091 C86.4957254,22.8261818 86.5264425,22.7578182 86.5871453,22.7025455 C86.647848,22.6472727 86.7187898,22.6196364 86.7999706,22.6196364 L88.3058378,22.6196364 C88.3862872,22.6196364 88.4579604,22.6472727 88.5186631,22.7025455 C88.5793659,22.7578182 88.6100829,22.8261818 88.6100829,22.9069091 L88.6100829,33.5512727 C88.6100829,33.632 88.5793659,33.7025455 88.5186631,33.7629091" id="Fill-12" fill="#FFFFFF"></path>
                    <path d="M96.9421581,27.1307636 C96.9421581,26.5656727 96.8734104,26.0980364 96.7373777,25.7293091 C96.6006137,25.3605818 96.4141173,25.0682182 96.1764257,24.8507636 C95.9394656,24.6333091 95.6593553,24.4820364 95.3368261,24.3962182 C95.0128343,24.3104 94.6595882,24.2674909 94.2756249,24.2674909 C93.9933205,24.2674909 93.7512409,24.2725818 93.5486545,24.2827636 C93.3467996,24.2929455 93.1654227,24.3031273 93.0037924,24.3125818 L93.0037924,32.1758545 C93.1654227,32.1853091 93.3467996,32.1954909 93.5486545,32.2056727 C93.7512409,32.2158545 93.9933205,32.2209455 94.2756249,32.2209455 C94.6595882,32.2209455 95.0128343,32.1780364 95.3368261,32.0914909 C95.6593553,32.0064 95.9394656,31.8544 96.1764257,31.6376727 C96.4141173,31.4202182 96.6006137,31.1278545 96.7373777,30.7591273 C96.8734104,30.3904 96.9421581,29.9234909 96.9421581,29.3576727 L96.9421581,27.1307636 Z M97.8161316,32.7874909 C96.9896964,33.5787636 95.8114778,33.9744 94.2807444,33.9744 C94.0072163,33.9744 93.7212552,33.9693091 93.4221295,33.9598545 C93.1222725,33.9496727 92.8341173,33.9336727 92.5554697,33.9140364 C92.2760907,33.8944 92.0223093,33.8733091 91.7948568,33.8536727 C91.5666729,33.8340364 91.3969978,33.8129455 91.2858313,33.7933091 C91.1534554,33.7736727 91.054722,33.7278545 90.9888997,33.6573091 C90.9230774,33.5867636 90.8901663,33.4762182 90.8901663,33.3249455 L90.8901663,23.1482182 C90.8901663,22.9969455 90.9230774,22.8864 90.9888997,22.8158545 C91.054722,22.7460364 91.1534554,22.7002182 91.2858313,22.6798545 C91.3969978,22.6602182 91.5666729,22.6398545 91.7948568,22.6194909 C92.0223093,22.5998545 92.2760907,22.5794909 92.5554697,22.5591273 C92.8341173,22.5394909 93.1222725,22.5234909 93.4221295,22.5133091 C93.7212552,22.5038545 94.0072163,22.4987636 94.2807444,22.4987636 C95.8114778,22.4987636 96.9896964,22.8944 97.8161316,23.6856727 C98.6425667,24.4769455 99.0557843,25.6238545 99.0557843,27.1249455 L99.0557843,29.3482182 C99.0557843,30.8500364 98.6425667,31.9962182 97.8161316,32.7874909 Z" id="Fill-14" fill="#FFFFFF"></path>
                    <path d="M107.281886,27.216 C107.281886,26.208 107.100509,25.4741818 106.737755,25.016 C106.375732,24.5578182 105.816974,24.328 105.061481,24.328 C104.306719,24.328 103.74723,24.5578182 103.385207,25.016 C103.023185,25.4741818 102.841808,26.208 102.841808,27.216 L102.841808,29.2574545 C102.841808,30.2647273 103.023185,30.9985455 103.385207,31.4574545 C103.74723,31.9163636 104.306719,32.1447273 105.061481,32.1447273 C105.816974,32.1447273 106.375732,31.9163636 106.737755,31.4574545 C107.100509,30.9985455 107.281886,30.2647273 107.281886,29.2574545 L107.281886,27.216 Z M109.067863,31.3963636 C108.85065,31.9963636 108.548599,32.4850909 108.163173,32.864 C107.778478,33.2414545 107.32211,33.5214545 106.794801,33.7025455 C106.267491,33.8843636 105.689718,33.9745455 105.061481,33.9745455 C104.432513,33.9745455 103.85474,33.8843636 103.328161,33.7025455 C102.800852,33.5214545 102.345216,33.2414545 101.95979,32.864 C101.574364,32.4850909 101.273044,31.9963636 101.055099,31.3963636 C100.836423,30.7970909 100.728182,30.0836364 100.728182,29.2574545 L100.728182,27.216 C100.728182,26.3796364 100.836423,25.664 101.055099,25.0690909 C101.273044,24.4741818 101.574364,23.9883636 101.95979,23.6101818 C102.345216,23.2312727 102.800852,22.952 103.328161,22.7709091 C103.85474,22.5890909 104.432513,22.4989091 105.061481,22.4989091 C105.689718,22.4989091 106.267491,22.5890909 106.794801,22.7709091 C107.32211,22.952 107.778478,23.2312727 108.163173,23.6101818 C108.548599,23.9883636 108.85065,24.4741818 109.067863,25.0690909 C109.285808,25.664 109.395512,26.3796364 109.395512,27.216 L109.395512,29.2574545 C109.395512,30.0836364 109.285808,30.7970909 109.067863,31.3963636 Z" id="Fill-16" fill="#FFFFFF"></path>
                    <path d="M117.103811,25.9155636 C117.103811,25.3410182 116.914389,24.9279273 116.536277,24.6755636 C116.156702,24.4239273 115.589168,24.2973818 114.832943,24.2973818 C114.751762,24.2973818 114.648641,24.3002909 114.522116,24.3053818 C114.395591,24.3104727 114.266872,24.3155636 114.135227,24.3206545 C114.005045,24.3250182 113.880714,24.3301091 113.76516,24.3352 C113.648142,24.3410182 113.55526,24.3482909 113.485049,24.3577455 L113.485049,27.7599273 C113.545021,27.7599273 113.638635,27.7628364 113.76516,27.7679273 C113.890953,27.7730182 114.021866,27.7781091 114.15863,27.7824727 C114.294663,27.7882909 114.426308,27.7933818 114.552101,27.7984727 C114.678626,27.8035636 114.77224,27.8057455 114.832943,27.8057455 C115.619885,27.8057455 116.194733,27.6799273 116.558218,27.4275636 C116.921703,27.1752 117.103811,26.7170182 117.103811,26.0515636 L117.103811,25.9155636 Z M119.567027,33.6726545 C119.567027,33.7933818 119.505593,33.8537455 119.384187,33.8537455 L117.529462,33.8537455 C117.448281,33.8537455 117.387578,33.8239273 117.346622,33.7635636 C117.305666,33.7032 117.266173,33.6326545 117.225217,33.5526545 L115.045037,29.5293818 L114.832943,29.5293818 C114.630357,29.5293818 114.398516,29.5221091 114.135958,29.5061091 C113.873401,29.4915636 113.656187,29.4784727 113.485049,29.4690182 L113.485049,33.5526545 C113.485049,33.6326545 113.457258,33.7032 113.401674,33.7635636 C113.34536,33.8239273 113.277343,33.8537455 113.195431,33.8537455 L111.674937,33.8537455 C111.594487,33.8537455 111.523546,33.8232 111.462112,33.7628364 C111.401409,33.7024727 111.371423,33.6319273 111.371423,33.5512 L111.371423,23.1482909 C111.371423,22.9970182 111.414573,22.8893818 111.500874,22.8232 C111.586442,22.7577455 111.705654,22.7155636 111.857777,22.6952 C112.25271,22.6341091 112.709078,22.5868364 113.226148,22.5512 C113.743219,22.5162909 114.280767,22.4988364 114.838063,22.4988364 C115.426075,22.4988364 115.98337,22.5570182 116.509948,22.6726545 C117.037258,22.7882909 117.50167,22.9773818 117.901723,23.2392 C118.302508,23.5017455 118.62138,23.8515636 118.859803,24.2908364 C119.098226,24.7286545 119.217437,25.2704727 119.217437,25.9155636 L119.217437,26.0515636 C119.217437,26.8581091 119.030941,27.5133818 118.657948,28.0173818 C118.284955,28.5213818 117.782512,28.8944727 117.149155,29.1366545 L119.53631,33.5512 C119.556788,33.5817455 119.567027,33.6224727 119.567027,33.6726545 Z" id="Fill-18" fill="#FFFFFF"></path>
                    <path d="M123.32248,33.7629091 C123.261777,33.8232727 123.190835,33.8538182 123.109654,33.8538182 L121.603787,33.8538182 C121.523338,33.8538182 121.452396,33.8232727 121.390962,33.7629091 C121.330259,33.7025455 121.300273,33.632 121.300273,33.5512727 L121.300273,22.9069091 C121.300273,22.8261818 121.330259,22.7578182 121.390962,22.7025455 C121.452396,22.6472727 121.523338,22.6196364 121.603787,22.6196364 L123.109654,22.6196364 C123.190835,22.6196364 123.261777,22.6472727 123.32248,22.7025455 C123.383182,22.7578182 123.413899,22.8261818 123.413899,22.9069091 L123.413899,33.5512727 C123.413899,33.632 123.383182,33.7025455 123.32248,33.7629091" id="Fill-20" fill="#FFFFFF"></path>
                    <path d="M129.708995,24.5093091 C129.688517,24.4184 129.663651,24.3558545 129.632934,24.3202182 C129.602217,24.2853091 129.546633,24.2678545 129.465453,24.2678545 C129.385003,24.2678545 129.328688,24.2853091 129.297971,24.3202182 C129.267986,24.3558545 129.242388,24.4184 129.222641,24.5093091 L128.127798,29.0002182 L130.803839,29.0002182 L129.708995,24.5093091 Z M134.087638,33.5965818 C134.087638,33.6773091 134.062772,33.7398545 134.012308,33.7856727 C133.961113,33.8307636 133.896022,33.8540364 133.81411,33.8540364 L132.202927,33.8540364 C132.131986,33.8540364 132.070552,33.8285818 132.020088,33.7784 C131.969624,33.7282182 131.933788,33.6678545 131.914041,33.5965818 L131.214862,30.7238545 L127.716774,30.7238545 L127.017596,33.5965818 C126.997117,33.6678545 126.962012,33.7282182 126.911549,33.7784 C126.860353,33.8285818 126.798919,33.8540364 126.728709,33.8540364 L125.117526,33.8540364 C125.035614,33.8540364 124.970523,33.8307636 124.919328,33.7856727 C124.868864,33.7398545 124.843267,33.6773091 124.843267,33.5965818 C124.843267,33.5864 124.846192,33.5769455 124.85058,33.5667636 C124.8557,33.5565818 124.858625,33.5413091 124.858625,33.5216727 L127.351826,24.0402182 C127.443246,23.6882182 127.574891,23.4104 127.747491,23.2089455 C127.920092,23.0082182 128.105126,22.8540364 128.302592,22.7478545 C128.500791,22.6424 128.702646,22.5740364 128.910351,22.5442182 C129.118057,22.5136727 129.303091,22.4984 129.465453,22.4984 C129.627814,22.4984 129.812848,22.5136727 130.020554,22.5442182 C130.228259,22.5740364 130.430846,22.6424 130.629044,22.7478545 C130.826511,22.8540364 131.011544,23.0082182 131.184145,23.2089455 C131.356014,23.4104 131.48839,23.6882182 131.57981,24.0402182 L134.073011,33.5216727 C134.073011,33.5413091 134.075205,33.5565818 134.081056,33.5667636 C134.085444,33.5769455 134.087638,33.5864 134.087638,33.5965818 Z" id="Fill-22" fill="#FFFFFF"></path>
                    <path d="M146.534556,31.7216727 C146.32685,32.2664 146.037232,32.7049455 145.667165,33.0373091 C145.297829,33.3704 144.85682,33.6096727 144.344869,33.7558545 C143.832918,33.9013091 143.272697,33.9747636 142.664938,33.9747636 C142.056448,33.9747636 141.496227,33.9013091 140.984276,33.7558545 C140.472325,33.6096727 140.031316,33.3704 139.66198,33.0373091 C139.291913,32.7049455 139.002295,32.2664 138.79532,31.7216727 C138.587614,31.1776727 138.48303,30.5020364 138.48303,29.6954909 L138.48303,22.9071273 C138.48303,22.8264 138.513747,22.7580364 138.57445,22.7027636 C138.635153,22.6467636 138.706094,22.6191273 138.787275,22.6191273 L140.293142,22.6191273 C140.373592,22.6191273 140.445265,22.6467636 140.505968,22.7027636 C140.56667,22.7587636 140.596656,22.8264 140.596656,22.9071273 L140.596656,29.7064 C140.596656,30.1405818 140.627373,30.5173091 140.688076,30.8351273 C140.748779,31.1536727 140.857751,31.4184 141.014993,31.6300364 C141.172235,31.8424 141.385061,31.9987636 141.653469,32.0998545 C141.921878,32.2002182 142.259034,32.2511273 142.664938,32.2511273 C143.08035,32.2511273 143.4197,32.2002182 143.683721,32.0998545 C143.94701,31.9987636 144.156909,31.8424 144.314883,31.6300364 C144.472125,31.4184 144.580366,31.1536727 144.641069,30.8351273 C144.702503,30.5173091 144.732489,30.1405818 144.732489,29.7064 L144.732489,22.9071273 C144.732489,22.8264 144.763206,22.7587636 144.823908,22.7027636 C144.884611,22.6467636 144.955553,22.6191273 145.036734,22.6191273 L146.542601,22.6191273 C146.62305,22.6191273 146.693992,22.6467636 146.755426,22.7027636 C146.816129,22.7580364 146.846115,22.8264 146.846115,22.9071273 L146.846115,29.6954909 C146.846115,30.5020364 146.742262,31.1776727 146.534556,31.7216727" id="Fill-24" fill="#FFFFFF"></path>
                    <path d="M154.965145,30.4816727 C154.965145,30.2700364 154.93516,30.0693091 154.873725,29.8773091 C154.813023,29.6853091 154.711364,29.5173091 154.570212,29.3711273 C154.428328,29.2242182 154.235249,29.1056727 153.992438,29.0147636 C153.748896,28.9245818 153.44977,28.8794909 153.095061,28.8794909 L151.164275,28.8794909 L151.164275,32.2053091 C151.346383,32.2053091 151.559209,32.2111273 151.802751,32.2213091 C152.046293,32.2307636 152.248148,32.2358545 152.411241,32.2358545 C152.897595,32.2358545 153.304961,32.2031273 153.634804,32.1376727 C153.963915,32.0729455 154.227936,31.9769455 154.425403,31.8504 C154.622869,31.7245818 154.762559,31.5631273 154.84374,31.3667636 C154.924189,31.1696727 154.965145,30.9405818 154.965145,30.6787636 L154.965145,30.4816727 Z M154.904442,25.6802182 C154.904442,25.4176727 154.858367,25.1929455 154.766947,25.0045818 C154.676259,24.8176727 154.52633,24.6656727 154.318624,24.5493091 C154.110918,24.4329455 153.840316,24.3485818 153.505354,24.2984 C153.171123,24.2482182 152.760099,24.2227636 152.273746,24.2227636 C152.091638,24.2227636 151.901484,24.2242182 151.704018,24.2293091 C151.506551,24.2351273 151.325905,24.2424 151.164275,24.2525818 L151.164275,27.3369455 L153.095061,27.3369455 C153.44977,27.3369455 153.743777,27.2991273 153.976349,27.2234909 C154.210383,27.1471273 154.395417,27.0431273 154.53145,26.9114909 C154.668945,26.7798545 154.765484,26.6249455 154.821068,26.4482182 C154.876651,26.2707636 154.904442,26.0860364 154.904442,25.8933091 L154.904442,25.6802182 Z M156.70651,32.2358545 C156.487834,32.6489455 156.1792,32.9842182 155.778416,33.2416727 C155.377631,33.4984 154.894203,33.6845818 154.326669,33.8002182 C153.759135,33.9165818 153.120659,33.9747636 152.411241,33.9747636 C151.792512,33.9747636 151.257889,33.9594909 150.806641,33.9289455 C150.355392,33.8991273 150.013117,33.8591273 149.780545,33.8082182 C149.526763,33.7580364 149.342461,33.6794909 149.225444,33.5740364 C149.108426,33.4678545 149.050649,33.2744 149.050649,32.9922182 L149.050649,23.4664 C149.050649,23.1936727 149.103307,23.0002182 149.210085,22.8845818 C149.316132,22.7689455 149.491658,22.6904 149.7352,22.6496727 C149.937055,22.6191273 150.261779,22.5871273 150.707907,22.5514909 C151.154036,22.5165818 151.675495,22.4984 152.273746,22.4984 C152.963417,22.4984 153.594579,22.5514909 154.167233,22.6569455 C154.739155,22.7631273 155.233554,22.9369455 155.649697,23.1791273 C156.065108,23.4205818 156.386906,23.7362182 156.61509,24.1238545 C156.842543,24.5122182 156.957366,24.9929455 156.957366,25.5674909 L156.957366,25.8700364 C156.957366,26.3747636 156.840349,26.8300364 156.607045,27.2387636 C156.374473,27.6474909 156.024152,27.9514909 155.559008,28.1536727 C156.024152,28.3551273 156.386906,28.6453091 156.645807,29.0227636 C156.903977,29.4009455 157.033427,29.8773091 157.033427,30.4518545 L157.033427,30.7085818 C157.033427,31.3136727 156.924455,31.8227636 156.70651,32.2358545 Z" id="Fill-26" fill="#FFFFFF"></path>
                    <path d="M165.586299,33.6727273 C165.540955,33.7127273 165.461969,33.7432727 165.350802,33.7629091 C165.228665,33.7832727 165.094095,33.8065455 164.947823,33.8312727 C164.80082,33.856 164.617981,33.8785455 164.400036,33.8996364 C164.182091,33.9192727 163.918802,33.9367273 163.609437,33.952 C163.300073,33.9672727 162.917572,33.9745455 162.461936,33.9745455 C161.964612,33.9745455 161.502393,33.9338182 161.07528,33.8538182 C160.648167,33.7738182 160.275905,33.6196364 159.959958,33.3927273 C159.64328,33.1658182 159.393155,32.8509091 159.209584,32.4472727 C159.025282,32.0450909 158.933862,31.52 158.933862,30.8749091 L158.933862,25.5978182 C158.933862,24.9534545 159.025282,24.4290909 159.209584,24.0254545 C159.393155,23.6225455 159.64328,23.3076364 159.959958,23.0807273 C160.275905,22.8538182 160.648167,22.7003636 161.07528,22.6196364 C161.502393,22.5389091 161.964612,22.4989091 162.461936,22.4989091 C162.917572,22.4989091 163.300073,22.5061818 163.609437,22.5214545 C163.918802,22.536 164.182091,22.5541818 164.400036,22.5738182 C164.617981,22.5949091 164.80082,22.6174545 164.947823,22.6421818 C165.094095,22.6676364 165.228665,22.6901818 165.350802,22.7105455 C165.461969,22.7301818 165.540955,22.7607273 165.586299,22.8014545 C165.631644,22.8407273 165.655047,22.9170909 165.655047,23.0276364 L165.655047,23.9949091 C165.655047,24.0763636 165.62433,24.1461818 165.563627,24.2065455 C165.502925,24.2676364 165.431251,24.2974545 165.350802,24.2974545 L162.249111,24.2974545 C161.80225,24.2974545 161.490692,24.3883636 161.312972,24.5694545 C161.135983,24.7512727 161.047488,25.0945455 161.047488,25.5978182 L161.047488,27.2312727 L165.167962,27.2312727 C165.249143,27.2312727 165.320085,27.2618182 165.380788,27.3221818 C165.442222,27.3825455 165.472208,27.4530909 165.472208,27.5338182 L165.472208,28.6225455 C165.472208,28.7032727 165.442222,28.7738182 165.380788,28.8341818 C165.320085,28.8945455 165.249143,28.9250909 165.167962,28.9250909 L161.047488,28.9250909 L161.047488,30.8749091 C161.047488,31.3796364 161.135983,31.7214545 161.312972,31.9032727 C161.490692,32.0843636 161.80225,32.1752727 162.249111,32.1752727 L165.350802,32.1752727 C165.431251,32.1752727 165.502925,32.2050909 165.563627,32.2661818 C165.62433,32.3265455 165.655047,32.3970909 165.655047,32.4778182 L165.655047,33.4458182 C165.655047,33.5570909 165.631644,33.632 165.586299,33.6727273" id="Fill-28" fill="#FFFFFF"></path>
                    <path d="M174.321865,33.6194182 C174.261162,33.6645091 174.179982,33.7023273 174.078323,33.7328727 C174.01762,33.7430545 173.913036,33.7626909 173.766764,33.7932364 C173.619761,33.8230545 173.439847,33.8514182 173.227021,33.8768727 C173.014196,33.9016 172.775773,33.9241455 172.511753,33.9445091 C172.248464,33.9648727 171.969816,33.9743273 171.67581,33.9743273 C171.220174,33.9743273 170.73894,33.9088727 170.231377,33.7786909 C169.724545,33.6470545 169.262327,33.4077818 168.845453,33.0594182 C168.427115,32.7125091 168.080451,32.2405091 167.803267,31.6463273 C167.526813,31.0514182 167.388586,30.2856 167.388586,29.3481455 L167.388586,27.1248727 C167.388586,26.1779636 167.526813,25.4041455 167.803267,24.8041455 C168.080451,24.2048727 168.427115,23.7328727 168.845453,23.3910545 C169.262327,23.0477818 169.724545,22.8143273 170.231377,22.6877818 C170.73894,22.5619636 171.220174,22.4986909 171.67581,22.4986909 C171.969816,22.4986909 172.248464,22.5088727 172.511753,22.5285091 C172.775773,22.5488727 173.014196,22.5721455 173.227021,22.5968727 C173.439847,22.6223273 173.619761,22.6470545 173.766764,22.6725091 C173.913036,22.6972364 174.01762,22.7205091 174.078323,22.7401455 C174.179982,22.7706909 174.261162,22.8085091 174.321865,22.8536 C174.382568,22.8994182 174.413285,22.9772364 174.413285,23.0885091 L174.413285,24.1008727 C174.413285,24.1917818 174.390613,24.2681455 174.344537,24.3285091 C174.299193,24.3888727 174.220206,24.4186909 174.10904,24.4186909 L174.078323,24.4186909 C173.946678,24.4092364 173.787242,24.3961455 173.600014,24.3808727 C173.412055,24.3656 173.211663,24.3532364 172.998838,24.3430545 C172.786012,24.3328727 172.568067,24.3234182 172.345003,24.3125091 C172.121939,24.3030545 171.909113,24.2979636 171.706527,24.2979636 C171.392043,24.2979636 171.098037,24.3430545 170.824509,24.4339636 C170.550981,24.5248727 170.316946,24.6812364 170.12533,24.9030545 C169.932251,25.1241455 169.780129,25.4172364 169.668962,25.7801455 C169.557064,26.1423273 169.501481,26.5910545 169.501481,27.1248727 L169.501481,29.3481455 C169.501481,29.8725091 169.557064,30.3154182 169.668962,30.6783273 C169.780129,31.0412364 169.932251,31.3336 170.12533,31.5554182 C170.316946,31.7772364 170.550981,31.9365091 170.824509,32.0317818 C171.098037,32.1277818 171.392043,32.1757818 171.706527,32.1757818 C171.909113,32.1757818 172.121939,32.1706909 172.345003,32.1605091 C172.568067,32.1503273 172.786012,32.1401455 172.998838,32.1299636 C173.211663,32.1197818 173.412055,32.1074182 173.600014,32.0921455 C173.787242,32.0776 173.946678,32.0645091 174.078323,32.0550545 L174.10904,32.0550545 C174.220206,32.0550545 174.299193,32.0848727 174.344537,32.1452364 C174.390613,32.2056 174.413285,32.2812364 174.413285,32.3721455 L174.413285,33.3852364 C174.413285,33.4957818 174.382568,33.5743273 174.321865,33.6194182" id="Fill-30" fill="#FFFFFF"></path>
                    <path d="M56.7246063,42.7970182 C56.9974031,42.9635636 57.3959935,43.1032 57.8157933,43.1032 C58.4389107,43.1032 58.8023959,42.7759273 58.8023959,42.3024727 C58.8023959,41.8646545 58.5508086,41.6137455 57.9137953,41.3701091 C57.1444061,41.0988364 56.6682917,40.7024727 56.6682917,40.0413818 C56.6682917,39.3104727 57.2775134,38.7679273 58.1939056,38.7679273 C58.6766022,38.7679273 59.0261916,38.8792 59.2368229,38.9970182 L59.0686104,39.4915636 C58.9142938,39.4079273 58.5990782,39.2690182 58.1726962,39.2690182 C57.5291007,39.2690182 57.284827,39.6515636 57.284827,39.9715636 C57.284827,40.4101091 57.5707882,40.6261091 58.2216972,40.8762909 C59.0196094,41.1824727 59.424782,41.5650182 59.424782,42.2537455 C59.424782,42.9773818 58.8865021,43.6035636 57.7741058,43.6035636 C57.3184695,43.6035636 56.8226084,43.4719273 56.5702897,43.3046545 L56.7246063,42.7970182 Z" id="Fill-32" fill="#FFFFFF"></path>
                    <path d="M63.0711162,42.6158545 C63.0711162,42.9642182 63.0776985,43.2696727 63.0989079,43.5344 L62.5533144,43.5344 L62.5182092,42.9845818 L62.5043134,42.9845818 C62.3434145,43.2558545 61.9865115,43.6107636 61.3846035,43.6107636 C60.8529058,43.6107636 60.2166239,43.3184 60.2166239,42.1358545 L60.2166239,40.1664 L60.8316964,40.1664 L60.8316964,42.0311273 C60.8316964,42.6711273 61.0277005,43.1031273 61.5879211,43.1031273 C62.0004074,43.1031273 62.2870999,42.8173091 62.3989978,42.5460364 C62.434103,42.4551273 62.4553124,42.3445818 62.4553124,42.2333091 L62.4553124,40.1664 L63.0711162,40.1664 L63.0711162,42.6158545 Z" id="Fill-34" fill="#FFFFFF"></path>
                    <path d="M65.8765344,41.8154182 C65.2051473,41.8016 64.4423403,41.9201455 64.4423403,42.5739636 C64.4423403,42.9703273 64.7078235,43.1586909 65.023039,43.1586909 C65.4640482,43.1586909 65.7434272,42.8801455 65.8414292,42.5943273 C65.8626386,42.5317818 65.8765344,42.4626909 65.8765344,42.4001455 L65.8765344,41.8154182 Z M65.9672229,43.5339636 L65.9189532,43.1092364 L65.8977438,43.1092364 C65.7090533,43.3746909 65.3448368,43.6110545 64.8621401,43.6110545 C64.1761258,43.6110545 63.8265365,43.1310545 63.8265365,42.6437818 C63.8265365,41.8299636 64.5542382,41.3841455 65.8626386,41.3914182 L65.8626386,41.3216 C65.8626386,41.0430545 65.785846,40.5419636 65.0932494,40.5419636 C64.7780339,40.5419636 64.4496539,40.6401455 64.2112311,40.7928727 L64.0715416,40.3892364 C64.3509205,40.2081455 64.7575559,40.0903273 65.1839379,40.0903273 C66.2195416,40.0903273 66.4711289,40.7928727 66.4711289,41.4670545 L66.4711289,42.7274182 C66.4711289,43.0190545 66.4850247,43.3048727 66.5274435,43.5339636 L65.9672229,43.5339636 Z" id="Fill-36" fill="#FFFFFF"></path>
                    <path d="M69.1862243,40.1663273 L69.8510292,42.0594182 C69.9629271,42.3648727 70.0543469,42.6434182 70.1238259,42.9219636 L70.1450353,42.9219636 C70.221828,42.6434182 70.31983,42.3648727 70.4317279,42.0594182 L71.0899506,40.1663273 L71.7328147,40.1663273 L70.4039363,43.5343273 L69.815924,43.5343273 L68.528733,40.1663273 L69.1862243,40.1663273 Z" id="Fill-38" fill="#FFFFFF"></path>
                    <path d="M72.6916257,41.8573818 C72.6916257,42.5948364 73.1187391,43.1512 73.7199158,43.1512 C74.3079281,43.1512 74.7489373,42.6013818 74.7489373,41.8428364 C74.7489373,41.2726545 74.4622447,40.5490182 73.734543,40.5490182 C73.0068413,40.5490182 72.6916257,41.2173818 72.6916257,41.8573818 M75.378637,41.8224727 C75.378637,43.0682909 74.5105144,43.6108364 73.6921242,43.6108364 C72.775732,43.6108364 72.0685083,42.9424727 72.0685083,41.8777455 C72.0685083,40.7512 72.8108372,40.0901091 73.7477075,40.0901091 C74.7204143,40.0901091 75.378637,40.7926545 75.378637,41.8224727" id="Fill-40" fill="#FFFFFF"></path>
                    <path d="M75.7706451,43.1790545 L77.3028413,41.1957818 C77.4498443,41.0154182 77.5895338,40.8554182 77.7431191,40.6743273 L77.7431191,40.6605091 L75.9103346,40.6605091 L75.9103346,40.1659636 L78.4927616,40.1659636 L78.485448,40.5492364 L76.9744613,42.5041455 C76.8340404,42.6925091 76.694351,42.8597818 76.5400343,43.0336 L76.5400343,43.0466909 L78.5205532,43.0466909 L78.5205532,43.5339636 L75.7706451,43.5339636 L75.7706451,43.1790545 Z" id="Fill-42" fill="#FFFFFF"></path>
                    <path d="M80.6965642,43.5341818 L80.6965642,40.6330909 L80.2204498,40.6330909 L80.2204498,40.1661818 L80.6965642,40.1661818 L80.6965642,40.0061818 C80.6965642,39.5334545 80.8018799,39.1014545 81.0878411,38.8301818 C81.3196817,38.6083636 81.6268523,38.5174545 81.9135448,38.5174545 C82.1307583,38.5174545 82.3194488,38.5661818 82.4386603,38.6149091 L82.354554,39.0883636 C82.2638656,39.0461818 82.1380719,39.0112727 81.9625459,39.0112727 C81.4381618,39.0112727 81.3050545,39.4709091 81.3050545,39.9858182 L81.3050545,40.1661818 L82.1234447,40.1661818 L82.1234447,40.6330909 L81.3050545,40.6330909 L81.3050545,43.5341818 L80.6965642,43.5341818 Z" id="Fill-44" fill="#FFFFFF"></path>
                    <path d="M84.4404617,41.8154182 C83.7683432,41.8016 83.0055363,41.9201455 83.0055363,42.5739636 C83.0055363,42.9703273 83.2717508,43.1586909 83.5862349,43.1586909 C84.0279755,43.1586909 84.3066231,42.8801455 84.4053565,42.5943273 C84.4258345,42.5317818 84.4404617,42.4626909 84.4404617,42.4001455 L84.4404617,41.8154182 Z M84.5311502,43.5339636 L84.4821491,43.1092364 L84.4609397,43.1092364 C84.2729806,43.3746909 83.9080327,43.6110545 83.4253361,43.6110545 C82.7400531,43.6110545 82.3897324,43.1310545 82.3897324,42.6437818 C82.3897324,41.8299636 83.1174341,41.3841455 84.4258345,41.3914182 L84.4258345,41.3216 C84.4258345,41.0430545 84.3490419,40.5419636 83.6564454,40.5419636 C83.3419612,40.5419636 83.0128498,40.6401455 82.7751583,40.7928727 L82.6347375,40.3892364 C82.9148478,40.2081455 83.3207518,40.0903273 83.7478652,40.0903273 C84.7834688,40.0903273 85.0343248,40.7928727 85.0343248,41.4670545 L85.0343248,42.7274182 C85.0343248,43.0190545 85.048952,43.3048727 85.0913708,43.5339636 L84.5311502,43.5339636 Z" id="Fill-46" fill="#FFFFFF"></path>
                    <path d="M85.6439853,43.1790545 L87.1761814,41.1957818 C87.3231845,41.0154182 87.462874,40.8554182 87.6164592,40.6743273 L87.6164592,40.6605091 L85.7836748,40.6605091 L85.7836748,40.1659636 L88.3661017,40.1659636 L88.3587882,40.5492364 L86.8478014,42.5041455 C86.7073806,42.6925091 86.5676911,42.8597818 86.4133745,43.0336 L86.4133745,43.0466909 L88.3938934,43.0466909 L88.3938934,43.5339636 L85.6439853,43.5339636 L85.6439853,43.1790545 Z" id="Fill-48" fill="#FFFFFF"></path>
                    <path d="M92.2911567,41.8154182 C91.6190382,41.8016 90.8562313,41.9201455 90.8562313,42.5739636 C90.8562313,42.9703273 91.1224458,43.1586909 91.4369299,43.1586909 C91.8786705,43.1586909 92.1573181,42.8801455 92.2560515,42.5943273 C92.2765295,42.5317818 92.2911567,42.4626909 92.2911567,42.4001455 L92.2911567,41.8154182 Z M92.3818451,43.5339636 L92.3328441,43.1092364 L92.3116347,43.1092364 C92.1236756,43.3746909 91.7587277,43.6110545 91.2760311,43.6110545 C90.5907481,43.6110545 90.2404274,43.1310545 90.2404274,42.6437818 C90.2404274,41.8299636 90.9681291,41.3841455 92.2765295,41.3914182 L92.2765295,41.3216 C92.2765295,41.0430545 92.1997369,40.5419636 91.5071403,40.5419636 C91.1926562,40.5419636 90.8635448,40.6401455 90.6258533,40.7928727 L90.4854325,40.3892364 C90.7655428,40.2081455 91.1714468,40.0903273 91.5985602,40.0903273 C92.6341638,40.0903273 92.8850198,40.7928727 92.8850198,41.4670545 L92.8850198,42.7274182 C92.8850198,43.0190545 92.899647,43.3048727 92.9420658,43.5339636 L92.3818451,43.5339636 Z" id="Fill-50" fill="#FFFFFF"></path>
                    <path d="M97.6435309,41.4958545 C97.6435309,41.3911273 97.6369487,41.3002182 97.6084257,41.2173091 C97.4972592,40.8624 97.1959395,40.5707636 96.7476168,40.5707636 C96.1603359,40.5707636 95.7398047,41.0638545 95.7398047,41.8434909 C95.7398047,42.5045818 96.0762296,43.0544 96.7410345,43.0544 C97.1184155,43.0544 97.462154,42.8173091 97.5952613,42.4274909 C97.6296351,42.3234909 97.6435309,42.2056727 97.6435309,42.1009455 L97.6435309,41.4958545 Z M98.2805442,40.1664 C98.2666484,40.4100364 98.2527526,40.6813091 98.2527526,41.0914909 L98.2527526,43.0471273 C98.2527526,43.8194909 98.098436,44.2929455 97.770056,44.5845818 C97.4409446,44.8907636 96.9648302,44.9889455 96.5377169,44.9889455 C96.1325442,44.9889455 95.6842215,44.8907636 95.4114247,44.7104 L95.5657414,44.2434909 C95.7895371,44.3831273 96.1391265,44.5089455 96.5596576,44.5089455 C97.1886259,44.5089455 97.6508445,44.1809455 97.6508445,43.3322182 L97.6508445,42.9569455 L97.6369487,42.9569455 C97.4475269,43.2696727 97.0833103,43.5198545 96.5596576,43.5198545 C95.7193267,43.5198545 95.1181499,42.8107636 95.1181499,41.8776727 C95.1181499,40.7373091 95.8663297,40.0900364 96.6430325,40.0900364 C97.2310447,40.0900364 97.5528425,40.3962182 97.6998456,40.6740364 L97.7137414,40.6740364 L97.7422644,40.1664 L98.2805442,40.1664 Z" id="Fill-52" fill="#FFFFFF"></path>
                    <path d="M101.42246,41.5235636 C101.429774,41.1337455 101.26083,40.5286545 100.568965,40.5286545 C99.9458476,40.5286545 99.6730509,41.0988364 99.6240498,41.5235636 L101.42246,41.5235636 Z M99.6167363,41.9621091 C99.6313634,42.7897455 100.16233,43.1308364 100.778134,43.1308364 C101.219874,43.1308364 101.485357,43.0537455 101.715735,42.9570182 L101.821051,43.3948364 C101.604569,43.4922909 101.233039,43.6035636 100.694759,43.6035636 C99.6518415,43.6035636 99.0294554,42.9221091 99.0294554,41.9061091 C99.0294554,40.8901091 99.6313634,40.0901091 100.617235,40.0901091 C101.723049,40.0901091 102.017055,41.0566545 102.017055,41.6762909 C102.017055,41.8021091 102.003159,41.8995636 101.995846,41.9621091 L99.6167363,41.9621091 Z" id="Fill-54" fill="#FFFFFF"></path>
                    <path d="M102.779423,41.0782545 C102.779423,40.7298909 102.772109,40.4448 102.751631,40.1662545 L103.297225,40.1662545 L103.33233,40.7233455 L103.346226,40.7233455 C103.514438,40.4026182 103.905715,40.0906182 104.465936,40.0906182 C104.934737,40.0906182 105.661707,40.3677091 105.661707,41.5233455 L105.661707,43.5342545 L105.046635,43.5342545 L105.046635,41.5931636 C105.046635,41.0506182 104.843317,40.5982545 104.262618,40.5982545 C103.857446,40.5982545 103.54223,40.8826182 103.436914,41.2237091 C103.409123,41.3008 103.395227,41.4048 103.395227,41.5095273 L103.395227,43.5342545 L102.779423,43.5342545 L102.779423,41.0782545 Z" id="Fill-56" fill="#FFFFFF"></path>
                    <path d="M107.404754,39.1997091 L107.404754,40.1662545 L108.286041,40.1662545 L108.286041,40.6331636 L107.404754,40.6331636 L107.404754,42.4491636 C107.404754,42.8658909 107.523234,43.1029818 107.866241,43.1029818 C108.027871,43.1029818 108.146351,43.0818909 108.223144,43.0615273 L108.250936,43.5197091 C108.132456,43.5691636 107.943034,43.6040727 107.705342,43.6040727 C107.41865,43.6040727 107.18754,43.5138909 107.040537,43.3458909 C106.865743,43.1655273 106.802846,42.8658909 106.802846,42.4695273 L106.802846,40.6331636 L106.27773,40.6331636 L106.27773,40.1662545 L106.802846,40.1662545 L106.802846,39.3597091 L107.404754,39.1997091 Z" id="Fill-58" fill="#FFFFFF"></path>
                    <path d="M111.127222,41.5235636 C111.134536,41.1337455 110.965592,40.5286545 110.273727,40.5286545 C109.65061,40.5286545 109.377813,41.0988364 109.328812,41.5235636 L111.127222,41.5235636 Z M109.321498,41.9621091 C109.336125,42.7897455 109.867092,43.1308364 110.482896,43.1308364 C110.924636,43.1308364 111.190119,43.0537455 111.420497,42.9570182 L111.525813,43.3948364 C111.309331,43.4922909 110.937801,43.6035636 110.399521,43.6035636 C109.356603,43.6035636 108.734217,42.9221091 108.734217,41.9061091 C108.734217,40.8901091 109.336125,40.0901091 110.321997,40.0901091 C111.427811,40.0901091 111.721817,41.0566545 111.721817,41.6762909 C111.721817,41.8021091 111.707921,41.8995636 111.700608,41.9621091 L109.321498,41.9621091 Z" id="Fill-60" fill="#FFFFFF"></path>
                    <mask id="mask-4" fill="white">
                        <use xlink:href="#path-3"></use>
                    </mask>
                    <g id="Clip-63"></g>
                    <path d="M113.991451,43.5339636 L114.798523,43.5339636 L114.798523,40.1659636 L113.991451,40.1659636 L113.991451,43.5339636 Z M114.89054,39.2205091 C114.899167,39.4292364 114.697878,39.5957818 114.376775,39.5957818 C114.093054,39.5957818 113.890807,39.4292364 113.890807,39.2205091 C113.890807,39.0045091 114.101681,38.8372364 114.394987,38.8372364 C114.697878,38.8372364 114.89054,39.0045091 114.89054,39.2205091 Z" id="Fill-62" fill="#FFFFFF" mask="url(#mask-4)"></path>
                    <path d="M115.605404,41.2174545 C115.605404,40.8203636 115.59809,40.4792727 115.577612,40.1665455 L116.115892,40.1665455 L116.137833,40.8276364 L116.165625,40.8276364 C116.31921,40.3752727 116.690009,40.0901818 117.103226,40.0901818 C117.173437,40.0901818 117.221706,40.0967273 117.278021,40.1112727 L117.278021,40.688 C117.214393,40.6741818 117.151496,40.6676364 117.068121,40.6676364 C116.633694,40.6676364 116.325792,40.9941818 116.242417,41.4538182 C116.228521,41.5367273 116.213894,41.6341818 116.213894,41.7389091 L116.213894,43.5345455 L115.605404,43.5345455 L115.605404,41.2174545 Z" id="Fill-64" fill="#FFFFFF" mask="url(#mask-4)"></path>
                    <path d="M121.790503,43.4092364 C121.629604,43.4921455 121.272701,43.6041455 120.817796,43.6041455 C119.796088,43.6041455 119.131283,42.9146909 119.131283,41.8848727 C119.131283,40.8485091 119.845821,40.0965091 120.950903,40.0965091 C121.31512,40.0965091 121.636918,40.1874182 121.80513,40.2710545 L121.664709,40.7437818 C121.517706,40.6608727 121.287328,40.5837818 120.950903,40.5837818 C120.174201,40.5837818 119.754401,41.1539636 119.754401,41.8572364 C119.754401,42.6368727 120.258307,43.1168727 120.929694,43.1168727 C121.280015,43.1168727 121.510393,43.0266909 121.685187,42.9496 L121.790503,43.4092364 Z" id="Fill-65" fill="#FFFFFF" mask="url(#mask-4)"></path>
                    <path d="M124.29526,41.8154182 C123.623873,41.8016 122.861066,41.9201455 122.861066,42.5739636 C122.861066,42.9703273 123.126549,43.1586909 123.441764,43.1586909 C123.882773,43.1586909 124.162152,42.8801455 124.260154,42.5943273 C124.281364,42.5317818 124.29526,42.4626909 124.29526,42.4001455 L124.29526,41.8154182 Z M124.386679,43.5339636 L124.337678,43.1092364 L124.316469,43.1092364 C124.127779,43.3746909 123.763562,43.6110545 123.280865,43.6110545 C122.595582,43.6110545 122.245262,43.1310545 122.245262,42.6437818 C122.245262,41.8299636 122.972963,41.3841455 124.281364,41.3914182 L124.281364,41.3216 C124.281364,41.0430545 124.204571,40.5419636 123.511975,40.5419636 C123.196759,40.5419636 122.868379,40.6401455 122.630688,40.7928727 L122.490267,40.3892364 C122.770377,40.2081455 123.176281,40.0903273 123.602663,40.0903273 C124.638267,40.0903273 124.889854,40.7928727 124.889854,41.4670545 L124.889854,42.7274182 C124.889854,43.0190545 124.904481,43.3048727 124.946169,43.5339636 L124.386679,43.5339636 Z" id="Fill-66" fill="#FFFFFF" mask="url(#mask-4)"></path>
                    <path d="M128.192742,41.5370182 C128.192742,41.4613818 128.185429,41.3566545 128.164951,41.2795636 C128.074262,40.8897455 127.737837,40.5704727 127.27635,40.5704727 C126.639337,40.5704727 126.261225,41.1268364 126.261225,41.8715636 C126.261225,42.5530182 126.596918,43.1166545 127.262454,43.1166545 C127.674941,43.1166545 128.053053,42.8453818 128.164951,42.3864727 C128.185429,42.3028364 128.192742,42.2184727 128.192742,42.1217455 L128.192742,41.5370182 Z M128.808546,38.5937455 L128.808546,42.6642909 C128.808546,42.9639273 128.81586,43.3050182 128.836338,43.5341091 L128.284162,43.5341091 L128.255639,42.9493818 L128.241743,42.9493818 C128.053053,43.3253818 127.639835,43.6112 127.086928,43.6112 C126.268538,43.6112 125.638838,42.9217455 125.638838,41.8992 C125.631525,40.7784727 126.331435,40.0904727 127.157139,40.0904727 C127.674941,40.0904727 128.025261,40.3333818 128.178847,40.6053818 L128.192742,40.6053818 L128.192742,38.5937455 L128.808546,38.5937455 Z" id="Fill-67" fill="#FFFFFF" mask="url(#mask-4)"></path>
                    <path d="M131.61455,41.8154182 C130.943162,41.8016 130.180355,41.9201455 130.180355,42.5739636 C130.180355,42.9703273 130.445839,43.1586909 130.761054,43.1586909 C131.202063,43.1586909 131.481442,42.8801455 131.579444,42.5943273 C131.600654,42.5317818 131.61455,42.4626909 131.61455,42.4001455 L131.61455,41.8154182 Z M131.705969,43.5339636 L131.656968,43.1092364 L131.635759,43.1092364 C131.447068,43.3746909 131.082852,43.6110545 130.600155,43.6110545 C129.914872,43.6110545 129.564552,43.1310545 129.564552,42.6437818 C129.564552,41.8299636 130.292253,41.3841455 131.600654,41.3914182 L131.600654,41.3216 C131.600654,41.0430545 131.523861,40.5419636 130.831265,40.5419636 C130.516049,40.5419636 130.187669,40.6401455 129.949978,40.7928727 L129.809557,40.3892364 C130.089667,40.2081455 130.495571,40.0903273 130.921953,40.0903273 C131.957557,40.0903273 132.209144,40.7928727 132.209144,41.4670545 L132.209144,42.7274182 C132.209144,43.0190545 132.223771,43.3048727 132.265459,43.5339636 L131.705969,43.5339636 Z" id="Fill-68" fill="#FFFFFF" mask="url(#mask-4)"></path>
                    <path d="M134.924239,40.1663273 L135.589044,42.0594182 C135.700942,42.3648727 135.792362,42.6434182 135.861841,42.9219636 L135.88305,42.9219636 C135.959843,42.6434182 136.057845,42.3648727 136.169743,42.0594182 L136.827966,40.1663273 L137.47083,40.1663273 L136.141951,43.5343273 L135.553939,43.5343273 L134.266748,40.1663273 L134.924239,40.1663273 Z" id="Fill-69" fill="#FFFFFF" mask="url(#mask-4)"></path>
                    <path d="M140.200187,41.5235636 C140.2075,41.1337455 140.038556,40.5286545 139.346691,40.5286545 C138.723574,40.5286545 138.450777,41.0988364 138.401776,41.5235636 L140.200187,41.5235636 Z M138.394463,41.9621091 C138.40909,42.7897455 138.940056,43.1308364 139.55586,43.1308364 C139.9976,43.1308364 140.263084,43.0537455 140.493461,42.9570182 L140.598777,43.3948364 C140.382295,43.4922909 140.010765,43.6035636 139.472485,43.6035636 C138.429568,43.6035636 137.807182,42.9221091 137.807182,41.9061091 C137.807182,40.8901091 138.40909,40.0901091 139.394961,40.0901091 C140.500775,40.0901091 140.794781,41.0566545 140.794781,41.6762909 C140.794781,41.8021091 140.780885,41.8995636 140.773572,41.9621091 L138.394463,41.9621091 Z" id="Fill-70" fill="#FFFFFF" mask="url(#mask-4)"></path>
                    <path d="M141.172235,43.1790545 L142.705163,41.1957818 C142.852166,41.0154182 142.991855,40.8554182 143.145441,40.6743273 L143.145441,40.6605091 L141.311925,40.6605091 L141.311925,40.1659636 L143.894352,40.1659636 L143.88777,40.5492364 L142.376051,42.5041455 C142.235631,42.6925091 142.096673,42.8597818 141.942356,43.0336 L141.942356,43.0466909 L143.922875,43.0466909 L143.922875,43.5339636 L141.172235,43.5339636 L141.172235,43.1790545 Z" id="Fill-71" fill="#FFFFFF" mask="url(#mask-4)"></path>
                    <path d="M146.035331,41.0782545 C146.035331,40.7298909 146.028017,40.4448 146.007539,40.1662545 L146.545819,40.1662545 L146.574342,40.7088 L146.595551,40.7088 C146.783511,40.3895273 147.098726,40.0906182 147.658947,40.0906182 C148.121165,40.0906182 148.470023,40.3677091 148.617026,40.7648 L148.631654,40.7648 C148.736238,40.5771636 148.869345,40.4309818 149.009035,40.3269818 C149.212352,40.1735273 149.435417,40.0906182 149.757946,40.0906182 C150.205537,40.0906182 150.870342,40.3822545 150.870342,41.5509818 L150.870342,43.5342545 L150.268434,43.5342545 L150.268434,41.6280727 C150.268434,40.9808 150.030742,40.5909818 149.53415,40.5909818 C149.184561,40.5909818 148.911764,40.8484364 148.806448,41.1480727 C148.778657,41.2309818 148.757447,41.3422545 148.757447,41.4542545 L148.757447,43.5342545 L148.155539,43.5342545 L148.155539,41.5168 C148.155539,40.9808 147.917848,40.5909818 147.449047,40.5909818 C147.063621,40.5909818 146.783511,40.8971636 146.68624,41.2033455 C146.651135,41.2935273 146.637239,41.3975273 146.637239,41.5022545 L146.637239,43.5342545 L146.035331,43.5342545 L146.035331,41.0782545 Z" id="Fill-72" fill="#FFFFFF" mask="url(#mask-4)"></path>
                    <path d="M153.655282,41.8154182 C152.983895,41.8016 152.221088,41.9201455 152.221088,42.5739636 C152.221088,42.9703273 152.486571,43.1586909 152.801787,43.1586909 C153.242796,43.1586909 153.522175,42.8801455 153.620177,42.5943273 C153.641386,42.5317818 153.655282,42.4626909 153.655282,42.4001455 L153.655282,41.8154182 Z M153.746702,43.5339636 L153.697701,43.1092364 L153.676492,43.1092364 C153.487801,43.3746909 153.123584,43.6110545 152.640888,43.6110545 C151.955605,43.6110545 151.605284,43.1310545 151.605284,42.6437818 C151.605284,41.8299636 152.332986,41.3841455 153.641386,41.3914182 L153.641386,41.3216 C153.641386,41.0430545 153.564594,40.5419636 152.871997,40.5419636 C152.556782,40.5419636 152.228402,40.6401455 151.99071,40.7928727 L151.850289,40.3892364 C152.1304,40.2081455 152.536304,40.0903273 152.962686,40.0903273 C153.998289,40.0903273 154.249877,40.7928727 154.249877,41.4670545 L154.249877,42.7274182 C154.249877,43.0190545 154.264504,43.3048727 154.306191,43.5339636 L153.746702,43.5339636 Z" id="Fill-73" fill="#FFFFFF" mask="url(#mask-4)"></path>
                    <path d="M155.268085,43.5339636 L156.075107,43.5339636 L156.075107,40.1659636 L155.268085,40.1659636 L155.268085,43.5339636 Z M156.16616,39.2205091 C156.175745,39.4292364 155.974469,39.5957818 155.653385,39.5957818 C155.368723,39.5957818 155.166488,39.4292364 155.166488,39.2205091 C155.166488,39.0045091 155.378308,38.8372364 155.670637,38.8372364 C155.974469,38.8372364 156.16616,39.0045091 156.16616,39.2205091 Z" id="Fill-74" fill="#FFFFFF" mask="url(#mask-4)"></path>
                    <path d="M156.797125,42.9077818 C156.978502,43.0263273 157.3003,43.1514182 157.608202,43.1514182 C158.056525,43.1514182 158.266425,42.9288727 158.266425,42.6503273 C158.266425,42.3579636 158.09163,42.1979636 157.635993,42.0314182 C157.027503,41.8154182 156.740811,41.4816 156.740811,41.0779636 C156.740811,40.5354182 157.181088,40.0903273 157.909522,40.0903273 C158.251797,40.0903273 158.553117,40.1877818 158.741808,40.2983273 L158.588222,40.7434182 C158.455115,40.6605091 158.210841,40.5492364 157.895626,40.5492364 C157.531409,40.5492364 157.328823,40.7579636 157.328823,41.0088727 C157.328823,41.2866909 157.531409,41.4117818 157.971687,41.5790545 C158.559699,41.8016 158.861019,42.0939636 158.861019,42.5943273 C158.861019,43.1863273 158.3988,43.6037818 157.594306,43.6037818 C157.223507,43.6037818 156.8805,43.5136 156.642809,43.3746909 L156.797125,42.9077818 Z" id="Fill-75" fill="#FFFFFF" mask="url(#mask-4)"></path>
                    <polygon id="Fill-76" fill="#FFFFFF" mask="url(#mask-4)" points="161.135105 43.5339636 161.750909 43.5339636 161.750909 38.5936 161.135105 38.5936"></polygon>
                    <path d="M163.164406,41.8573818 C163.164406,42.5948364 163.591519,43.1512 164.192696,43.1512 C164.780708,43.1512 165.221717,42.6013818 165.221717,41.8428364 C165.221717,41.2726545 164.935025,40.5490182 164.207323,40.5490182 C163.479621,40.5490182 163.164406,41.2173818 163.164406,41.8573818 M165.851417,41.8224727 C165.851417,43.0682909 164.983294,43.6108364 164.164904,43.6108364 C163.248512,43.6108364 162.541288,42.9424727 162.541288,41.8777455 C162.541288,40.7512 163.283617,40.0901091 164.221219,40.0901091 C165.193194,40.0901091 165.851417,40.7926545 165.851417,41.8224727" id="Fill-77" fill="#FFFFFF" mask="url(#mask-4)"></path>
                    <path d="M166.627608,41.0782545 C166.627608,40.7298909 166.620294,40.4448 166.599816,40.1662545 L167.14541,40.1662545 L167.180515,40.7233455 L167.194411,40.7233455 C167.362623,40.4026182 167.7539,40.0906182 168.314121,40.0906182 C168.782921,40.0906182 169.509892,40.3677091 169.509892,41.5233455 L169.509892,43.5342545 L168.894819,43.5342545 L168.894819,41.5931636 C168.894819,41.0506182 168.691502,40.5982545 168.110803,40.5982545 C167.70563,40.5982545 167.390415,40.8826182 167.285099,41.2237091 C167.257307,41.3008 167.243412,41.4048 167.243412,41.5095273 L167.243412,43.5342545 L166.627608,43.5342545 L166.627608,41.0782545 Z" id="Fill-78" fill="#FFFFFF" mask="url(#mask-4)"></path>
                    <path d="M172.792009,41.4958545 C172.792009,41.3911273 172.784696,41.3002182 172.756904,41.2173091 C172.645006,40.8624 172.344418,40.5707636 171.896095,40.5707636 C171.308814,40.5707636 170.888283,41.0638545 170.888283,41.8434909 C170.888283,42.5045818 171.223977,43.0544 171.889513,43.0544 C172.266894,43.0544 172.609901,42.8173091 172.743008,42.4274909 C172.777382,42.3234909 172.792009,42.2056727 172.792009,42.1009455 L172.792009,41.4958545 Z M173.428291,40.1664 C173.415127,40.4100364 173.4005,40.6813091 173.4005,41.0914909 L173.4005,43.0471273 C173.4005,43.8194909 173.246914,44.2929455 172.917803,44.5845818 C172.589423,44.8907636 172.113309,44.9889455 171.686195,44.9889455 C171.281023,44.9889455 170.8327,44.8907636 170.559903,44.7104 L170.713488,44.2434909 C170.938016,44.3831273 171.287605,44.5089455 171.707405,44.5089455 C172.337104,44.5089455 172.799323,44.1809455 172.799323,43.3322182 L172.799323,42.9569455 L172.784696,42.9569455 C172.596005,43.2696727 172.231789,43.5198545 171.707405,43.5198545 C170.867805,43.5198545 170.265897,42.8107636 170.265897,41.8776727 C170.265897,40.7373091 171.014808,40.0900364 171.791511,40.0900364 C172.379523,40.0900364 172.701321,40.3962182 172.847593,40.6740364 L172.86222,40.6740364 L172.890011,40.1664 L173.428291,40.1664 Z" id="Fill-79" fill="#FFFFFF" mask="url(#mask-4)"></path>
                    <path d="M176.570939,41.5235636 C176.578253,41.1337455 176.409309,40.5286545 175.717444,40.5286545 C175.094326,40.5286545 174.821529,41.0988364 174.772528,41.5235636 L176.570939,41.5235636 Z M174.765215,41.9621091 C174.779842,42.7897455 175.310808,43.1308364 175.926612,43.1308364 C176.368353,43.1308364 176.633836,43.0537455 176.864214,42.9570182 L176.969529,43.3948364 C176.753047,43.4922909 176.381517,43.6035636 175.843237,43.6035636 C174.80032,43.6035636 174.177934,42.9221091 174.177934,41.9061091 C174.177934,40.8901091 174.779842,40.0901091 175.765713,40.0901091 C176.871527,40.0901091 177.165533,41.0566545 177.165533,41.6762909 C177.165533,41.8021091 177.151638,41.8995636 177.144324,41.9621091 L174.765215,41.9621091 Z" id="Fill-80" fill="#FFFFFF" mask="url(#mask-4)"></path>
                    <path d="M177.780825,43.1727273 C177.780825,42.9152727 177.95562,42.7334545 178.200625,42.7334545 C178.44563,42.7334545 178.613843,42.9152727 178.613843,43.1727273 C178.613843,43.4229091 178.452944,43.6112727 178.193312,43.6112727 C177.949038,43.6112727 177.780825,43.4229091 177.780825,43.1727273" id="Fill-81" fill="#FFFFFF" mask="url(#mask-4)"></path>
                </g>
            </g>
        </g>
    </g>
</svg>