<?xml version="1.0" encoding="utf-8"?>
<!-- Generator: Adobe Illustrator 18.0.0, SVG Export Plug-In . SVG Version: 6.00 Build 0)  -->
<!DOCTYPE svg PUBLIC "-//W3C//DTD SVG 1.1//EN" "http://www.w3.org/Graphics/SVG/1.1/DTD/svg11.dtd">
<svg version="1.1" id="Camada_1" xmlns="http://www.w3.org/2000/svg" xmlns:xlink="http://www.w3.org/1999/xlink" x="0px" y="0px"
	 viewBox="0 0 200.1 41.3" enable-background="new 0 0 200.1 41.3" xml:space="preserve">
<g>
	<path fill="#FFFFFF" d="M0,0v41.2h200V0H0z M0.7,40.6V0.7h36.6v2.1c0,0.1,0,0.1-0.1,0.1h-2.9c-0.1,0-0.1,0-0.1,0.1v0.9
		c0,0.1,0,0.1,0.1,0.1h2.9c0.1,0,0.1,0,0.1,0.1c0,5.6-0.3,11.2-0.5,16.8c-0.1,6.6,0,13.1,0.6,19.7H0.7z M199.4,40.6H38.2
		c0.6-6.5,0.8-13.1,0.6-19.7c-0.1-5.6-0.4-11.2-0.5-16.8c0-0.1,0-0.1,0.1-0.1h2.9c0.1,0,0.1,0,0.1-0.1V3c0-0.1,0-0.1-0.1-0.1h-2.9
		c-0.1,0-0.1,0-0.1-0.1V0.7h161V40.6z"/>
	<path fill="#FFFFFF" d="M39.5,22.3c0.4,2,1.2,3.9,2.4,5.6c0,0,0,0,0,0l7.4,11.8c0.1,0.2,0.4,0.3,0.6,0.1c0.2-0.1,0.3-0.3,0.2-0.5
		l-6-12.8c0,0,0,0,0,0c-1.8-3.3-2.8-6.5-2.8-10.3c0-3,0.7-6,1.3-8.9c0.1-0.2-0.1-0.4-0.3-0.5c-0.2-0.1-0.4,0.1-0.5,0.3
		C40.1,11.7,38.5,17.2,39.5,22.3z"/>
	<path fill="#FFFFFF" d="M22.1,29.1c1.5-1,3-1.9,4.4-3c7-5.1,6.1-11.2,1.3-17.5c-0.1-0.2-0.4-0.2-0.6-0.1C27,8.6,26.9,8.9,27,9.1
		c0.9,1.9,1.7,3.9,2.2,5.9c0.3,1.5,0.5,3,0,4.5c-0.6,2.2-2.4,3.9-4.2,5.2l-13.8,10c-0.2,0.1-0.2,0.4-0.1,0.6
		c0.1,0.2,0.4,0.2,0.6,0.1c1.8-1.1,3.6-2.2,5.4-3.3C18.8,31.2,20.5,30.2,22.1,29.1z"/>
	<path fill="#FFFFFF" d="M33.5,21c0.5-2.1,0.3-4.2-0.3-6.2c-0.6-2.5-1.7-4.9-2.8-7.2c-0.1-0.2-0.3-0.3-0.5-0.2
		c-0.2,0.1-0.3,0.3-0.2,0.5c0.4,1.4,0.9,2.7,1.2,4.1c0.3,1.1,0.6,2.2,0.8,3.3c0.3,1.7,0.4,3.4-0.1,5c-0.6,2-2,3.6-3.4,5L15.9,37.2
		c-0.2,0.2-0.2,0.4,0,0.6c0.1,0.2,0.4,0.2,0.6,0.1c0.9-0.6,1.7-1.3,2.6-2c1.6-1.2,3.2-2.5,4.8-3.8c1.9-1.6,3.8-3.1,5.6-4.8
		C31.4,25.7,32.9,23.6,33.5,21z"/>
	<path fill="#FFFFFF" d="M33.4,6.8C33.2,6.8,33,7,33.1,7.3c0.7,2.9,1.3,5.9,1.3,8.9c0,3.7-1,7-2.8,10.3c0,0,0,0,0,0l-6,12.8
		c-0.1,0.2,0,0.4,0.2,0.5c0.2,0.1,0.4,0,0.6-0.1l7.4-11.8c0,0,0,0,0,0c1.2-1.7,2-3.5,2.4-5.6c1-5-0.6-10.5-2.3-15.2
		C33.8,6.8,33.6,6.7,33.4,6.8z"/>
	<path fill="#FFFFFF" d="M49.3,26.1c1.4,1,2.9,2,4.4,3c1.6,1,3.3,2.1,4.9,3.1c1.8,1.1,3.6,2.2,5.4,3.3c0.2,0.1,0.4,0.1,0.6-0.1
		c0.1-0.2,0.1-0.4-0.1-0.6l-13.8-10c-1.8-1.3-3.6-3-4.2-5.2c-0.4-1.5-0.3-3,0-4.5c0.5-2,1.3-4.1,2.2-5.9c0.1-0.2,0-0.4-0.2-0.5
		c-0.2-0.1-0.4-0.1-0.6,0.1C43.2,14.9,42.2,21.1,49.3,26.1z"/>
	<path fill="#FFFFFF" d="M42.2,21c0.6,2.6,2.1,4.7,4.1,6.4c1.9,1.6,3.7,3.2,5.6,4.8c1.6,1.3,3.2,2.5,4.8,3.8c0.9,0.7,1.7,1.3,2.6,2
		c0.2,0.1,0.4,0.1,0.6-0.1c0.1-0.2,0.1-0.4,0-0.6L47.7,25.4c-1.5-1.4-2.8-3-3.4-5c-0.5-1.6-0.4-3.4-0.1-5c0.2-1.1,0.5-2.2,0.8-3.3
		c0.4-1.4,0.8-2.7,1.2-4.1c0.1-0.2,0-0.4-0.2-0.5c-0.2-0.1-0.4,0-0.5,0.2c-1.1,2.3-2.2,4.7-2.8,7.2C42,16.8,41.8,18.9,42.2,21z"/>
	<path fill="#FFFFFF" d="M116.9,18.6c1.1,0,1.7-0.6,1.7-1.9v-3c0-0.1-0.1-0.1-0.1-0.1h-0.4c-0.1,0-0.1,0.1-0.1,0.1v3
		c0,0.9-0.3,1.3-1.1,1.3c-0.8,0-1.1-0.5-1.1-1.3v-3c0-0.1-0.1-0.1-0.1-0.1h-0.4c-0.1,0-0.1,0.1-0.1,0.1v3
		C115.2,18.1,115.8,18.6,116.9,18.6z"/>
	<path fill="#FFFFFF" d="M120.1,18.6c0.1,0,0.1-0.1,0.1-0.1v-3.9c0,0,0,0,0,0c0,0,0,0,0,0l2.1,3.9c0,0.1,0.1,0.1,0.2,0.1h0.4
		c0.1,0,0.2-0.1,0.2-0.2v-4.7c0-0.1,0-0.1-0.1-0.1h-0.4c-0.1,0-0.1,0.1-0.1,0.1v3.9c0,0,0,0,0,0l0,0l-2.1-3.9
		c-0.1-0.1-0.1-0.1-0.3-0.1h-0.4c-0.1,0-0.2,0.1-0.2,0.2v4.7c0,0.1,0.1,0.1,0.1,0.1H120.1z"/>
	<path fill="#FFFFFF" d="M124.8,18.6c0.1,0,0.1-0.1,0.1-0.1v-4.7c0-0.1-0.1-0.1-0.1-0.1h-0.4c-0.1,0-0.1,0.1-0.1,0.1v4.7
		c0,0.1,0.1,0.1,0.1,0.1H124.8z"/>
	<path fill="#FFFFFF" d="M126.8,13.2c0.1,0,0.1-0.1,0.1-0.1V13c0-0.2,0-0.3,0.2-0.3c0.1,0,0.1,0,0.3,0.1l0.4,0.3
		c0.1,0.1,0.3,0.1,0.4,0.1c0.4,0,0.6-0.2,0.6-0.7v-0.2c0-0.1,0-0.1-0.1-0.1h-0.2c-0.1,0-0.1,0.1-0.1,0.1v0.2c0,0.2-0.1,0.3-0.2,0.3
		c-0.1,0-0.2,0-0.2-0.1l-0.5-0.4c-0.1-0.1-0.3-0.2-0.4-0.2c-0.4,0-0.6,0.2-0.6,0.7v0.1c0,0.1,0,0.1,0.1,0.1H126.8z"/>
	<path fill="#FFFFFF" d="M126.3,18.6c0.1,0,0.1,0,0.1-0.1l0.4-1.5h1.7l0.4,1.5c0,0.1,0.1,0.1,0.1,0.1h0.4c0.1,0,0.1,0,0.1-0.1
		c0,0,0,0,0,0l-1.2-4.4c-0.1-0.4-0.4-0.5-0.7-0.5c-0.3,0-0.6,0.1-0.7,0.5l-1.2,4.4c0,0,0,0,0,0c0,0.1,0,0.1,0.1,0.1H126.3z
		 M127.6,14.2c0-0.1,0.1-0.1,0.1-0.1c0.1,0,0.1,0,0.1,0.1l0.6,2.2H127L127.6,14.2z"/>
	<path fill="#FFFFFF" d="M132,18.6c1.1,0,1.8-0.6,1.8-2.1v-0.9c0-1.5-0.8-2.1-1.8-2.1c-1.1,0-1.8,0.6-1.8,2.1v0.9
		C130.2,18,131,18.6,132,18.6z M130.8,15.7c0-1.1,0.5-1.6,1.2-1.6c0.7,0,1.2,0.4,1.2,1.6v0.9c0,1.1-0.5,1.6-1.2,1.6
		c-0.7,0-1.2-0.4-1.2-1.6V15.7z"/>
	<path fill="#FFFFFF" d="M137.9,18.6c1,0,2-0.3,2-1.4v-0.1c0-0.5-0.3-0.9-0.7-1.1c0.5-0.2,0.7-0.6,0.7-1.1v-0.1c0-1-0.9-1.3-2-1.3
		c-0.4,0-0.8,0-1.1,0.1c-0.1,0-0.2,0.1-0.2,0.2v4.5c0,0.2,0.1,0.2,0.2,0.2C137.1,18.6,137.5,18.6,137.9,18.6z M137.2,14.1
		c0.2,0,0.4,0,0.7,0c0.8,0,1.4,0.1,1.4,0.8V15c0,0.4-0.2,0.8-1,0.8h-1V14.1z M137.2,16.2h1c0.8,0,1,0.4,1,0.9v0.1
		c0,0.7-0.5,0.9-1.3,0.9c-0.2,0-0.5,0-0.7,0V16.2z"/>
	<path fill="#FFFFFF" d="M141.3,18.6c0.1,0,0.1-0.1,0.1-0.1v-2c0.4,0,0.5,0,0.7,0h0.1h0.1l1.2,2c0.1,0.1,0.1,0.1,0.2,0.1h0.4
		c0.1,0,0.1,0,0.1-0.1c0,0,0,0,0-0.1l-1.2-2c0.6-0.2,1.1-0.6,1.1-1.4v0c0-1.1-0.8-1.4-1.9-1.4c-0.4,0-0.9,0-1.2,0.1
		c-0.1,0-0.2,0.1-0.2,0.1v4.7c0,0.1,0.1,0.1,0.1,0.1H141.3z M141.4,14.1c0.2,0,0.5,0,0.7,0c0.8,0,1.3,0.2,1.3,0.9v0
		c0,0.7-0.4,0.9-1.3,0.9c-0.2,0-0.4,0-0.7,0V14.1z"/>
	<path fill="#FFFFFF" d="M145.4,18.6c0.1,0,0.1,0,0.1-0.1l0.4-1.5h1.7l0.4,1.5c0,0.1,0.1,0.1,0.1,0.1h0.4c0.1,0,0.1,0,0.1-0.1
		c0,0,0,0,0,0l-1.2-4.4c-0.1-0.4-0.4-0.5-0.7-0.5c-0.3,0-0.6,0.1-0.7,0.5l-1.2,4.4c0,0,0,0,0,0c0,0.1,0,0.1,0.1,0.1H145.4z
		 M146.7,14.2c0-0.1,0.1-0.1,0.1-0.1c0.1,0,0.1,0,0.1,0.1l0.6,2.2h-1.5L146.7,14.2z"/>
	<path fill="#FFFFFF" d="M150.4,16l0.6,0.4c0.6,0.4,0.8,0.6,0.8,0.9c0,0.5-0.2,0.8-1,0.8c-0.3,0-0.8,0-1.1,0h0c-0.1,0-0.1,0-0.1,0.1
		v0.3c0,0.1,0,0.1,0.1,0.1c0.3,0,0.6,0.1,1.1,0.1c1.3,0,1.7-0.7,1.7-1.3c0-0.5-0.3-0.9-1-1.4l-0.6-0.4c-0.5-0.3-0.7-0.5-0.7-0.8
		c0-0.5,0.3-0.6,1-0.6c0.4,0,0.9,0,1.2,0h0c0.1,0,0.1,0,0.1-0.1v-0.3c0-0.1,0-0.1-0.1-0.1c-0.3,0-0.8-0.1-1.2-0.1
		c-1,0-1.6,0.4-1.6,1.2C149.5,15.3,149.8,15.6,150.4,16z"/>
	<path fill="#FFFFFF" d="M153.9,18.6c0.1,0,0.1-0.1,0.1-0.1v-4.7c0-0.1-0.1-0.1-0.1-0.1h-0.4c-0.1,0-0.1,0.1-0.1,0.1v4.7
		c0,0.1,0.1,0.1,0.1,0.1H153.9z"/>
	<path fill="#FFFFFF" d="M156.6,18.6c0.6,0,1.1,0,1.3-0.1c0,0,0.1-0.1,0.1-0.1v-0.3c0,0,0-0.1-0.1-0.1h-1.3c-0.7,0-0.8-0.2-0.8-0.7
		v-3.6c0-0.1-0.1-0.1-0.1-0.1h-0.3c-0.1,0-0.1,0.1-0.1,0.1v3.6C155.1,18.5,155.9,18.6,156.6,18.6z"/>
	<path fill="#FFFFFF" d="M160.1,18.6c0.4,0,1.1,0,1.3,0c0,0,0.1-0.1,0.1-0.1v-0.3c0,0,0-0.1-0.1-0.1h-1.3c-0.7,0-0.8-0.2-0.8-0.7
		v-1.1h2.1c0.1,0,0.1-0.1,0.1-0.1v-0.3c0-0.1-0.1-0.1-0.1-0.1h-2.1v-0.9c0-0.5,0.1-0.7,0.8-0.7h1.3c0,0,0.1,0,0.1-0.1v-0.3
		c0,0,0-0.1-0.1-0.1c-0.3,0-0.9,0-1.3,0c-0.9,0-1.4,0.4-1.4,1.2v2.6C158.7,18.3,159.2,18.6,160.1,18.6z"/>
	<path fill="#FFFFFF" d="M162.9,18.6c0.1,0,0.1-0.1,0.1-0.1v-4.7c0-0.1-0.1-0.1-0.1-0.1h-0.4c-0.1,0-0.1,0.1-0.1,0.1v4.7
		c0,0.1,0.1,0.1,0.1,0.1H162.9z"/>
	<path fill="#FFFFFF" d="M164.6,18.6c0.1,0,0.1-0.1,0.1-0.1v-2c0.4,0,0.5,0,0.7,0h0.1h0.1l1.2,2c0.1,0.1,0.1,0.1,0.2,0.1h0.4
		c0.1,0,0.1,0,0.1-0.1c0,0,0,0,0-0.1l-1.2-2c0.6-0.2,1.1-0.6,1.1-1.4v0c0-1.1-0.8-1.4-1.9-1.4c-0.4,0-0.9,0-1.2,0.1
		c-0.1,0-0.2,0.1-0.2,0.1v4.7c0,0.1,0.1,0.1,0.1,0.1H164.6z M164.8,14.1c0.2,0,0.5,0,0.7,0c0.8,0,1.3,0.2,1.3,0.9v0
		c0,0.7-0.4,0.9-1.3,0.9c-0.2,0-0.4,0-0.7,0V14.1z"/>
	<path fill="#FFFFFF" d="M168.8,18.6c0.1,0,0.1,0,0.1-0.1l0.4-1.5h1.7l0.4,1.5c0,0.1,0.1,0.1,0.1,0.1h0.4c0.1,0,0.1,0,0.1-0.1
		c0,0,0,0,0,0l-1.2-4.4c-0.1-0.4-0.4-0.5-0.7-0.5c-0.3,0-0.6,0.1-0.7,0.5l-1.2,4.4c0,0,0,0,0,0c0,0.1,0,0.1,0.1,0.1H168.8z
		 M170.1,14.2c0-0.1,0.1-0.1,0.1-0.1c0.1,0,0.1,0,0.1,0.1l0.6,2.2h-1.5L170.1,14.2z"/>
	<path fill="#FFFFFF" d="M116.5,22.8c-0.5,0-1,0-1.2,0.1c-0.1,0-0.1,0.1-0.1,0.2v4.6c0,0.1,0.1,0.2,0.1,0.2c0.2,0,0.7,0.1,1.2,0.1
		c1.2,0,2-0.6,2-2.1v-0.9C118.6,23.4,117.8,22.8,116.5,22.8z M118,25.7c0,1.2-0.6,1.6-1.4,1.6c-0.3,0-0.5,0-0.7,0v-4
		c0.2,0,0.4,0,0.7,0c0.8,0,1.4,0.3,1.4,1.6V25.7z"/>
	<path fill="#FFFFFF" d="M121,27.8c0.4,0,1.1,0,1.3,0c0,0,0.1-0.1,0.1-0.1v-0.3c0,0,0-0.1-0.1-0.1H121c-0.7,0-0.8-0.2-0.8-0.7v-1.1
		h2.1c0.1,0,0.1-0.1,0.1-0.1v-0.3c0-0.1-0.1-0.1-0.1-0.1h-2.1V24c0-0.5,0.1-0.7,0.8-0.7h1.3c0,0,0.1,0,0.1-0.1v-0.3
		c0,0,0-0.1-0.1-0.1c-0.3,0-0.9,0-1.3,0c-0.9,0-1.4,0.4-1.4,1.2v2.6C119.5,27.5,120,27.8,121,27.8z"/>
	<path fill="#FFFFFF" d="M126.5,27.8c0.4,0,1.1,0,1.3,0c0,0,0.1-0.1,0.1-0.1v-0.3c0,0,0-0.1-0.1-0.1h-1.3c-0.7,0-0.8-0.2-0.8-0.7
		v-1.1h2.1c0.1,0,0.1-0.1,0.1-0.1v-0.3c0-0.1-0.1-0.1-0.1-0.1h-2.1V24c0-0.5,0.1-0.7,0.8-0.7h1.3c0,0,0.1,0,0.1-0.1v-0.3
		c0,0,0-0.1-0.1-0.1c-0.3,0-0.9,0-1.3,0c-0.9,0-1.4,0.4-1.4,1.2v2.6C125.1,27.5,125.6,27.8,126.5,27.8z"/>
	<path fill="#FFFFFF" d="M128.8,23v4.6c0,0.1,0.1,0.2,0.1,0.2c0.2,0,0.7,0.1,1.2,0.1c1.2,0,2-0.6,2-2.1v-0.9c0-1.4-0.8-2.1-2-2.1
		c-0.5,0-1,0-1.2,0.1C128.9,22.8,128.8,22.9,128.8,23z M129.4,23.3c0.2,0,0.4,0,0.7,0c0.8,0,1.4,0.3,1.4,1.6v0.9
		c0,1.2-0.6,1.6-1.4,1.6c-0.3,0-0.5,0-0.7,0V23.3z"/>
	<path fill="#FFFFFF" d="M133.7,22.9c0-0.1-0.1-0.1-0.1-0.1h-0.4c-0.1,0-0.1,0.1-0.1,0.1v3c0,1.3,0.6,1.9,1.7,1.9s1.7-0.6,1.7-1.9
		v-3c0-0.1-0.1-0.1-0.1-0.1h-0.4c-0.1,0-0.1,0.1-0.1,0.1v3c0,0.9-0.3,1.3-1.1,1.3c-0.8,0-1.1-0.5-1.1-1.3V22.9z"/>
	<path fill="#FFFFFF" d="M137.5,24.8v0.9c0,1.6,0.9,2.1,1.8,2.1c0.6,0,0.8,0,1.1-0.1c0.1,0,0.1-0.1,0.1-0.1v-0.3
		c0-0.1,0-0.1-0.1-0.1h0c-0.2,0-0.7,0.1-1.1,0.1c-0.7,0-1.2-0.4-1.2-1.5v-0.9c0-1.1,0.5-1.5,1.2-1.5c0.4,0,0.9,0,1.1,0.1h0
		c0.1,0,0.1,0,0.1-0.1V23c0-0.1,0-0.1-0.1-0.1c-0.3,0-0.7-0.1-1.1-0.1C138.5,22.8,137.5,23.2,137.5,24.8z"/>
	<path fill="#FFFFFF" d="M143.8,23.3c-0.1-0.4-0.4-0.5-0.7-0.5c-0.3,0-0.6,0.1-0.7,0.5l-1.2,4.4c0,0,0,0,0,0c0,0.1,0,0.1,0.1,0.1
		h0.4c0.1,0,0.1,0,0.1-0.1l0.4-1.5h1.7l0.4,1.5c0,0.1,0.1,0.1,0.1,0.1h0.4c0.1,0,0.1,0,0.1-0.1c0,0,0,0,0,0L143.8,23.3z M142.4,25.6
		l0.6-2.2c0-0.1,0.1-0.1,0.1-0.1c0.1,0,0.1,0,0.1,0.1l0.6,2.2H142.4z"/>
	<path fill="#FFFFFF" d="M148.6,27.2c-0.2,0-0.7,0.1-1.1,0.1c-0.7,0-1.2-0.4-1.2-1.5v-0.9c0-1.1,0.5-1.5,1.2-1.5
		c0.4,0,0.9,0,1.1,0.1h0c0.1,0,0.1,0,0.1-0.1v-0.3c0-0.1,0-0.1-0.1-0.1c-0.3,0-0.7-0.1-1.1-0.1c-0.8,0-1.8,0.4-1.8,2.1v0.9
		c0,1.6,0.9,2.1,1.8,2.1c0.6,0,0.8,0,1.1-0.1c0.1,0,0.1-0.1,0.1-0.1v-0.3C148.7,27.3,148.7,27.2,148.6,27.2L148.6,27.2z"/>
	<path fill="#FFFFFF" d="M147.3,28c-0.1,0-0.1,0-0.2,0.1l-0.6,0.8c0,0,0,0,0,0.1c0,0,0,0,0.1,0h0.4c0.1,0,0.1,0,0.2-0.1l0.8-0.8
		c0,0,0,0,0-0.1c0,0,0,0-0.1,0H147.3z"/>
	<path fill="#FFFFFF" d="M149.9,27.8c0.1,0,0.1,0,0.1-0.1l0.4-1.5h1.7l0.4,1.5c0,0.1,0.1,0.1,0.1,0.1h0.4c0.1,0,0.1,0,0.1-0.1
		c0,0,0,0,0,0l-1.2-4.4c-0.1-0.4-0.4-0.5-0.7-0.5c-0.3,0-0.6,0.1-0.7,0.5l-1.2,4.4c0,0,0,0,0,0c0,0.1,0,0.1,0.1,0.1H149.9z
		 M151.2,23.4c0-0.1,0.1-0.1,0.1-0.1c0.1,0,0.1,0,0.1,0.1l0.6,2.2h-1.5L151.2,23.4z"/>
	<path fill="#FFFFFF" d="M152.2,21.5c-0.1,0-0.1,0.1-0.1,0.1v0.2c0,0.2-0.1,0.3-0.2,0.3c-0.1,0-0.2,0-0.2-0.1l-0.5-0.4
		c-0.1-0.1-0.3-0.2-0.4-0.2c-0.4,0-0.6,0.2-0.6,0.7v0.1c0,0.1,0,0.1,0.1,0.1h0.2c0.1,0,0.1-0.1,0.1-0.1v-0.1c0-0.2,0-0.3,0.2-0.3
		c0.1,0,0.1,0,0.3,0.1l0.4,0.3c0.1,0.1,0.3,0.1,0.4,0.1c0.4,0,0.6-0.2,0.6-0.7v-0.2c0-0.1,0-0.1-0.1-0.1H152.2z"/>
	<path fill="#FFFFFF" d="M153.8,25.7c0,1.5,0.8,2.1,1.8,2.1c1.1,0,1.8-0.6,1.8-2.1v-0.9c0-1.5-0.8-2.1-1.8-2.1
		c-1.1,0-1.8,0.6-1.8,2.1V25.7z M154.4,24.9c0-1.1,0.5-1.6,1.2-1.6c0.7,0,1.2,0.4,1.2,1.6v0.9c0,1.1-0.5,1.6-1.2,1.6
		c-0.7,0-1.2-0.4-1.2-1.6V24.9z"/>
	<path fill="#FFFFFF" d="M160.1,24.8v0.9c0,1.6,0.9,2.1,1.8,2.1c0.6,0,0.8,0,1.1-0.1c0.1,0,0.1-0.1,0.1-0.1v-0.3
		c0-0.1,0-0.1-0.1-0.1h0c-0.2,0-0.7,0.1-1.1,0.1c-0.7,0-1.2-0.4-1.2-1.5v-0.9c0-1.1,0.5-1.5,1.2-1.5c0.4,0,0.9,0,1.1,0.1h0
		c0.1,0,0.1,0,0.1-0.1V23c0-0.1,0-0.1-0.1-0.1c-0.3,0-0.7-0.1-1.1-0.1C161.1,22.8,160.1,23.2,160.1,24.8z"/>
	<path fill="#FFFFFF" d="M164.3,27.8c0.1,0,0.1,0,0.1-0.1l0.4-1.5h1.7l0.4,1.5c0,0.1,0.1,0.1,0.1,0.1h0.4c0.1,0,0.1,0,0.1-0.1
		c0,0,0,0,0,0l-1.2-4.4c-0.1-0.4-0.4-0.5-0.7-0.5c-0.3,0-0.6,0.1-0.7,0.5l-1.2,4.4c0,0,0,0,0,0c0,0.1,0,0.1,0.1,0.1H164.3z
		 M165.6,23.4c0-0.1,0.1-0.1,0.1-0.1c0.1,0,0.1,0,0.1,0.1l0.6,2.2H165L165.6,23.4z"/>
	<path fill="#FFFFFF" d="M169.2,23.3v4.3c0,0.1,0.1,0.1,0.1,0.1h0.4c0.1,0,0.1-0.1,0.1-0.1v-4.3h1.3c0.1,0,0.1,0,0.1-0.1v-0.3
		c0-0.1-0.1-0.1-0.1-0.1h-3.2c-0.1,0-0.1,0.1-0.1,0.1v0.3c0,0.1,0.1,0.1,0.1,0.1H169.2z"/>
	<path fill="#FFFFFF" d="M173.5,22.5c0.1,0,0.1,0,0.2-0.1l0.8-0.8c0,0,0,0,0-0.1c0,0,0,0-0.1,0H174c-0.1,0-0.1,0-0.2,0.1l-0.7,0.8
		c0,0,0,0,0,0.1c0,0,0,0,0.1,0H173.5z"/>
	<path fill="#FFFFFF" d="M171.8,25.7c0,1.5,0.8,2.1,1.8,2.1c1.1,0,1.8-0.6,1.8-2.1v-0.9c0-1.5-0.8-2.1-1.8-2.1
		c-1.1,0-1.8,0.6-1.8,2.1V25.7z M172.4,24.9c0-1.1,0.5-1.6,1.2-1.6c0.7,0,1.2,0.4,1.2,1.6v0.9c0,1.1-0.5,1.6-1.2,1.6
		c-0.7,0-1.2-0.4-1.2-1.6V24.9z"/>
	<path fill="#FFFFFF" d="M177.8,27.8c0.6,0,1.1,0,1.3-0.1c0,0,0.1-0.1,0.1-0.1v-0.3c0,0,0-0.1-0.1-0.1h-1.3c-0.7,0-0.8-0.2-0.8-0.7
		v-3.6c0-0.1-0.1-0.1-0.1-0.1h-0.3c-0.1,0-0.1,0.1-0.1,0.1v3.6C176.4,27.7,177.1,27.8,177.8,27.8z"/>
	<path fill="#FFFFFF" d="M180.5,27.8c0.1,0,0.1-0.1,0.1-0.1v-4.7c0-0.1-0.1-0.1-0.1-0.1h-0.4c-0.1,0-0.1,0.1-0.1,0.1v4.7
		c0,0.1,0.1,0.1,0.1,0.1H180.5z"/>
	<path fill="#FFFFFF" d="M183.4,27.8c0.6,0,0.8,0,1.1-0.1c0.1,0,0.1-0.1,0.1-0.1v-0.3c0-0.1,0-0.1-0.1-0.1h0c-0.2,0-0.7,0.1-1.1,0.1
		c-0.7,0-1.2-0.4-1.2-1.5v-0.9c0-1.1,0.5-1.5,1.2-1.5c0.4,0,0.9,0,1.1,0.1h0c0.1,0,0.1,0,0.1-0.1V23c0-0.1,0-0.1-0.1-0.1
		c-0.3,0-0.7-0.1-1.1-0.1c-0.8,0-1.8,0.4-1.8,2.1v0.9C181.7,27.4,182.6,27.8,183.4,27.8z"/>
	<path fill="#FFFFFF" d="M185.9,27.8c0.1,0,0.1,0,0.1-0.1l0.4-1.5h1.7l0.4,1.5c0,0.1,0.1,0.1,0.1,0.1h0.4c0.1,0,0.1,0,0.1-0.1
		c0,0,0,0,0,0l-1.2-4.4c-0.1-0.4-0.4-0.5-0.7-0.5c-0.3,0-0.6,0.1-0.7,0.5l-1.2,4.4c0,0,0,0,0,0c0,0.1,0,0.1,0.1,0.1H185.9z
		 M187.2,23.4c0-0.1,0.1-0.1,0.1-0.1c0.1,0,0.1,0,0.1,0.1l0.6,2.2h-1.5L187.2,23.4z"/>
	<path fill="#FFFFFF" d="M64.9,27.8c3,0,5.4-1.1,5.4-5.4V14c0-0.2-0.2-0.4-0.4-0.4h-2.4c-0.2,0-0.4,0.2-0.4,0.4v8.4
		c0,1.9-0.5,2.7-2.2,2.7c-1.7,0-2.2-0.8-2.2-2.7V14c0-0.2-0.2-0.4-0.4-0.4h-2.5c-0.2,0-0.4,0.2-0.4,0.4v8.4
		C59.5,26.6,62,27.8,64.9,27.8z"/>
	<path fill="#FFFFFF" d="M78.2,27.7c1.3,0,2.3-0.3,2.3-0.3c1.8-0.5,3-1.6,3-3.9v-0.3c0-1.3-0.7-2.3-1.7-2.8c1-0.5,1.6-1.5,1.6-2.8
		v-0.3c0-3-2.4-3.9-5.9-3.9c-1.2,0-2.7,0.1-3.4,0.2c-0.7,0.1-1,0.4-1,1.2v5.9l0,2.7C73.2,26.6,75.4,27.7,78.2,27.7z M76.3,16.7
		c0-0.3,0.3-0.6,0.6-0.6h1.4c1.3,0,2,0.5,2,1.5v0.3c0,0.8-0.4,1.5-1.9,1.5h-2c-0.1,0-0.1,0-0.1-0.1V16.7z M76.3,21.7
		C76.3,21.6,76.4,21.6,76.3,21.7l2.1-0.1c1.5,0,2,0.8,2,1.7v0.2c0,1.1-0.4,1.7-1.8,1.7h-0.4c-1.4,0-1.9-0.7-1.9-1.5V21.7z"/>
	<path fill="#FFFFFF" d="M90.9,27.8c2,0,3-0.2,3.6-0.2c0.3,0,0.4-0.2,0.4-0.4v-1.7c0-0.2-0.2-0.4-0.4-0.4h-3.8
		c-0.9,0-1.2-0.3-1.2-1.3v-1.9c0-0.1,0-0.1,0.1-0.1h4.8c0.2,0,0.4-0.2,0.4-0.4v-1.8c0-0.2-0.2-0.4-0.4-0.4h-4.8
		c-0.1,0-0.1,0-0.1-0.1v-1.6c0-1,0.3-1.3,1.2-1.3h3.8c0.2,0,0.4-0.2,0.4-0.4v-1.7c0-0.2-0.1-0.3-0.4-0.4c-0.7-0.1-1.6-0.2-3.6-0.2
		c-2.4,0-4.6,0.6-4.6,4v6.2C86.3,27.1,88.5,27.8,90.9,27.8z"/>
	<path fill="#FFFFFF" d="M103.1,27.8c1.3,0,2.4-0.2,2.8-0.3c0.3-0.1,0.4-0.2,0.4-0.4v-1.8c0-0.2-0.1-0.4-0.4-0.4h-0.1
		c-0.7,0.1-1.7,0.2-2.8,0.2c-1.3,0-2.3-0.7-2.3-3.2v-2.4c0-2.5,1-3.2,2.3-3.2c1,0,2.1,0.1,2.8,0.2h0.1c0.2,0,0.4-0.2,0.4-0.4v-1.8
		c0-0.3-0.2-0.3-0.4-0.4c-0.4-0.1-1.5-0.3-2.8-0.3c-2.9,0-5.6,1.5-5.6,6v2.4C97.5,26.3,100.2,27.8,103.1,27.8z"/>
	<path fill="#FFFFFF" d="M111,27.8V13.5c0-0.1-0.1-0.3-0.3-0.3c-0.1,0-0.3,0.1-0.3,0.3v14.4c0,0.1,0.1,0.3,0.3,0.3
		C110.8,28.1,111,28,111,27.8z"/>
</g>
</svg>
